<svg xmlns="http://www.w3.org/2000/svg" xmlns:xlink="http://www.w3.org/1999/xlink" width="816" zoomAndPan="magnify" viewBox="0 0 612 791.999994" height="1056" preserveAspectRatio="xMidYMid meet" version="1.0"><defs><g/><clipPath id="d0930ae30e"><path d="M 5.914062 0 L 608.957031 0 L 608.957031 132.640625 L 5.914062 132.640625 Z M 5.914062 0 " clip-rule="nonzero"/></clipPath></defs><rect x="-61.2" width="734.4" fill="#ffffff" y="-79.199999" height="950.399992" fill-opacity="1"/><rect x="-61.2" width="734.4" fill="#ffffff" y="-79.199999" height="950.399992" fill-opacity="1"/><g clip-path="url(#d0930ae30e)"><path fill="#f8f8f8" d="M 5.914062 -22.957031 L 608.847656 -22.957031 L 608.847656 132.640625 L 5.914062 132.640625 Z M 5.914062 -22.957031 " fill-opacity="1" fill-rule="nonzero"/></g><path stroke-linecap="butt" transform="matrix(-0.75, 0, 0, -0.75, 538.608024, 133.367358)" fill="none" stroke-linejoin="miter" d="M -0.00180172 0.500228 L 623.649271 0.500228 " stroke="#575757" stroke-width="1" stroke-opacity="1" stroke-miterlimit="4"/><g fill="#575757" fill-opacity="1"><g transform="translate(195.78616, 102.740688)"><g><path d="M 0.9375 0 L 0.9375 -8.015625 L 3.546875 -8.015625 C 4.421875 -8.015625 5.078125 -7.832031 5.515625 -7.46875 C 5.953125 -7.113281 6.171875 -6.585938 6.171875 -5.890625 C 6.171875 -5.515625 6.0625 -5.179688 5.84375 -4.890625 C 5.632812 -4.597656 5.347656 -4.375 4.984375 -4.21875 C 5.421875 -4.09375 5.765625 -3.859375 6.015625 -3.515625 C 6.265625 -3.179688 6.390625 -2.78125 6.390625 -2.3125 C 6.390625 -1.59375 6.15625 -1.023438 5.6875 -0.609375 C 5.21875 -0.203125 4.5625 0 3.71875 0 Z M 1.984375 -3.75 L 1.984375 -0.859375 L 3.734375 -0.859375 C 4.222656 -0.859375 4.609375 -0.984375 4.890625 -1.234375 C 5.179688 -1.492188 5.328125 -1.847656 5.328125 -2.296875 C 5.328125 -3.265625 4.800781 -3.75 3.75 -3.75 Z M 1.984375 -4.59375 L 3.59375 -4.59375 C 4.050781 -4.59375 4.414062 -4.707031 4.6875 -4.9375 C 4.96875 -5.175781 5.109375 -5.492188 5.109375 -5.890625 C 5.109375 -6.328125 4.976562 -6.644531 4.71875 -6.84375 C 4.46875 -7.050781 4.078125 -7.15625 3.546875 -7.15625 L 1.984375 -7.15625 Z M 1.984375 -4.59375 "/></g></g></g><g fill="#575757" fill-opacity="1"><g transform="translate(205.071932, 102.740688)"><g><path d="M 6.578125 -8.015625 L 6.578125 -2.5625 C 6.578125 -1.8125 6.335938 -1.191406 5.859375 -0.703125 C 5.390625 -0.222656 4.75 0.0390625 3.9375 0.09375 L 3.65625 0.109375 C 2.78125 0.109375 2.082031 -0.125 1.5625 -0.59375 C 1.039062 -1.070312 0.773438 -1.726562 0.765625 -2.5625 L 0.765625 -8.015625 L 1.8125 -8.015625 L 1.8125 -2.59375 C 1.8125 -2.007812 1.972656 -1.554688 2.296875 -1.234375 C 2.617188 -0.910156 3.070312 -0.75 3.65625 -0.75 C 4.257812 -0.75 4.71875 -0.910156 5.03125 -1.234375 C 5.351562 -1.554688 5.515625 -2.003906 5.515625 -2.578125 L 5.515625 -8.015625 Z M 6.578125 -8.015625 "/></g></g></g><g fill="#575757" fill-opacity="1"><g transform="translate(214.649848, 102.740688)"><g><path d="M 3.296875 -3.578125 C 2.390625 -3.835938 1.726562 -4.15625 1.3125 -4.53125 C 0.894531 -4.914062 0.6875 -5.382812 0.6875 -5.9375 C 0.6875 -6.570312 0.9375 -7.09375 1.4375 -7.5 C 1.945312 -7.914062 2.609375 -8.125 3.421875 -8.125 C 3.972656 -8.125 4.460938 -8.015625 4.890625 -7.796875 C 5.328125 -7.585938 5.660156 -7.296875 5.890625 -6.921875 C 6.128906 -6.554688 6.25 -6.148438 6.25 -5.703125 L 5.1875 -5.703125 C 5.1875 -6.179688 5.03125 -6.5625 4.71875 -6.84375 C 4.414062 -7.125 3.984375 -7.265625 3.421875 -7.265625 C 2.898438 -7.265625 2.492188 -7.148438 2.203125 -6.921875 C 1.910156 -6.691406 1.765625 -6.367188 1.765625 -5.953125 C 1.765625 -5.628906 1.898438 -5.351562 2.171875 -5.125 C 2.453125 -4.90625 2.925781 -4.703125 3.59375 -4.515625 C 4.257812 -4.328125 4.78125 -4.117188 5.15625 -3.890625 C 5.53125 -3.660156 5.804688 -3.394531 5.984375 -3.09375 C 6.171875 -2.800781 6.265625 -2.445312 6.265625 -2.03125 C 6.265625 -1.382812 6.007812 -0.863281 5.5 -0.46875 C 5 -0.0820312 4.320312 0.109375 3.46875 0.109375 C 2.925781 0.109375 2.414062 0.00390625 1.9375 -0.203125 C 1.457031 -0.410156 1.085938 -0.695312 0.828125 -1.0625 C 0.566406 -1.4375 0.4375 -1.859375 0.4375 -2.328125 L 1.5 -2.328125 C 1.5 -1.835938 1.675781 -1.453125 2.03125 -1.171875 C 2.394531 -0.890625 2.875 -0.75 3.46875 -0.75 C 4.03125 -0.75 4.457031 -0.863281 4.75 -1.09375 C 5.050781 -1.320312 5.203125 -1.628906 5.203125 -2.015625 C 5.203125 -2.410156 5.0625 -2.71875 4.78125 -2.9375 C 4.507812 -3.15625 4.015625 -3.367188 3.296875 -3.578125 Z M 3.296875 -3.578125 "/></g></g></g><g fill="#575757" fill-opacity="1"><g transform="translate(223.60489, 102.740688)"><g><path d="M 2.0625 0 L 1.015625 0 L 1.015625 -8.015625 L 2.0625 -8.015625 Z M 2.0625 0 "/></g></g></g><g fill="#575757" fill-opacity="1"><g transform="translate(228.932937, 102.740688)"><g><path d="M 7.09375 0 L 6.03125 0 L 2 -6.1875 L 2 0 L 0.9375 0 L 0.9375 -8.015625 L 2 -8.015625 L 6.046875 -1.8125 L 6.046875 -8.015625 L 7.09375 -8.015625 Z M 7.09375 0 "/></g></g></g><g fill="#575757" fill-opacity="1"><g transform="translate(239.238458, 102.740688)"><g><path d="M 5.46875 -3.703125 L 1.984375 -3.703125 L 1.984375 -0.859375 L 6.03125 -0.859375 L 6.03125 0 L 0.9375 0 L 0.9375 -8.015625 L 5.96875 -8.015625 L 5.96875 -7.15625 L 1.984375 -7.15625 L 1.984375 -4.578125 L 5.46875 -4.578125 Z M 5.46875 -3.703125 "/></g></g></g><g fill="#575757" fill-opacity="1"><g transform="translate(247.912379, 102.740688)"><g><path d="M 3.296875 -3.578125 C 2.390625 -3.835938 1.726562 -4.15625 1.3125 -4.53125 C 0.894531 -4.914062 0.6875 -5.382812 0.6875 -5.9375 C 0.6875 -6.570312 0.9375 -7.09375 1.4375 -7.5 C 1.945312 -7.914062 2.609375 -8.125 3.421875 -8.125 C 3.972656 -8.125 4.460938 -8.015625 4.890625 -7.796875 C 5.328125 -7.585938 5.660156 -7.296875 5.890625 -6.921875 C 6.128906 -6.554688 6.25 -6.148438 6.25 -5.703125 L 5.1875 -5.703125 C 5.1875 -6.179688 5.03125 -6.5625 4.71875 -6.84375 C 4.414062 -7.125 3.984375 -7.265625 3.421875 -7.265625 C 2.898438 -7.265625 2.492188 -7.148438 2.203125 -6.921875 C 1.910156 -6.691406 1.765625 -6.367188 1.765625 -5.953125 C 1.765625 -5.628906 1.898438 -5.351562 2.171875 -5.125 C 2.453125 -4.90625 2.925781 -4.703125 3.59375 -4.515625 C 4.257812 -4.328125 4.78125 -4.117188 5.15625 -3.890625 C 5.53125 -3.660156 5.804688 -3.394531 5.984375 -3.09375 C 6.171875 -2.800781 6.265625 -2.445312 6.265625 -2.03125 C 6.265625 -1.382812 6.007812 -0.863281 5.5 -0.46875 C 5 -0.0820312 4.320312 0.109375 3.46875 0.109375 C 2.925781 0.109375 2.414062 0.00390625 1.9375 -0.203125 C 1.457031 -0.410156 1.085938 -0.695312 0.828125 -1.0625 C 0.566406 -1.4375 0.4375 -1.859375 0.4375 -2.328125 L 1.5 -2.328125 C 1.5 -1.835938 1.675781 -1.453125 2.03125 -1.171875 C 2.394531 -0.890625 2.875 -0.75 3.46875 -0.75 C 4.03125 -0.75 4.457031 -0.863281 4.75 -1.09375 C 5.050781 -1.320312 5.203125 -1.628906 5.203125 -2.015625 C 5.203125 -2.410156 5.0625 -2.71875 4.78125 -2.9375 C 4.507812 -3.15625 4.015625 -3.367188 3.296875 -3.578125 Z M 3.296875 -3.578125 "/></g></g></g><g fill="#575757" fill-opacity="1"><g transform="translate(256.86742, 102.740688)"><g><path d="M 3.296875 -3.578125 C 2.390625 -3.835938 1.726562 -4.15625 1.3125 -4.53125 C 0.894531 -4.914062 0.6875 -5.382812 0.6875 -5.9375 C 0.6875 -6.570312 0.9375 -7.09375 1.4375 -7.5 C 1.945312 -7.914062 2.609375 -8.125 3.421875 -8.125 C 3.972656 -8.125 4.460938 -8.015625 4.890625 -7.796875 C 5.328125 -7.585938 5.660156 -7.296875 5.890625 -6.921875 C 6.128906 -6.554688 6.25 -6.148438 6.25 -5.703125 L 5.1875 -5.703125 C 5.1875 -6.179688 5.03125 -6.5625 4.71875 -6.84375 C 4.414062 -7.125 3.984375 -7.265625 3.421875 -7.265625 C 2.898438 -7.265625 2.492188 -7.148438 2.203125 -6.921875 C 1.910156 -6.691406 1.765625 -6.367188 1.765625 -5.953125 C 1.765625 -5.628906 1.898438 -5.351562 2.171875 -5.125 C 2.453125 -4.90625 2.925781 -4.703125 3.59375 -4.515625 C 4.257812 -4.328125 4.78125 -4.117188 5.15625 -3.890625 C 5.53125 -3.660156 5.804688 -3.394531 5.984375 -3.09375 C 6.171875 -2.800781 6.265625 -2.445312 6.265625 -2.03125 C 6.265625 -1.382812 6.007812 -0.863281 5.5 -0.46875 C 5 -0.0820312 4.320312 0.109375 3.46875 0.109375 C 2.925781 0.109375 2.414062 0.00390625 1.9375 -0.203125 C 1.457031 -0.410156 1.085938 -0.695312 0.828125 -1.0625 C 0.566406 -1.4375 0.4375 -1.859375 0.4375 -2.328125 L 1.5 -2.328125 C 1.5 -1.835938 1.675781 -1.453125 2.03125 -1.171875 C 2.394531 -0.890625 2.875 -0.75 3.46875 -0.75 C 4.03125 -0.75 4.457031 -0.863281 4.75 -1.09375 C 5.050781 -1.320312 5.203125 -1.628906 5.203125 -2.015625 C 5.203125 -2.410156 5.0625 -2.71875 4.78125 -2.9375 C 4.507812 -3.15625 4.015625 -3.367188 3.296875 -3.578125 Z M 3.296875 -3.578125 "/></g></g></g><g fill="#575757" fill-opacity="1"><g transform="translate(265.82246, 102.740688)"><g/></g></g><g fill="#575757" fill-opacity="1"><g transform="translate(270.874897, 102.740688)"><g><path d="M 0.9375 0 L 0.9375 -8.015625 L 3.1875 -8.015625 C 3.882812 -8.015625 4.5 -7.859375 5.03125 -7.546875 C 5.570312 -7.242188 5.988281 -6.804688 6.28125 -6.234375 C 6.570312 -5.671875 6.722656 -5.019531 6.734375 -4.28125 L 6.734375 -3.765625 C 6.734375 -3.015625 6.585938 -2.351562 6.296875 -1.78125 C 6.003906 -1.207031 5.585938 -0.769531 5.046875 -0.46875 C 4.503906 -0.164062 3.875 -0.0078125 3.15625 0 Z M 1.984375 -7.15625 L 1.984375 -0.859375 L 3.09375 -0.859375 C 3.914062 -0.859375 4.550781 -1.113281 5 -1.625 C 5.457031 -2.132812 5.6875 -2.859375 5.6875 -3.796875 L 5.6875 -4.265625 C 5.6875 -5.171875 5.472656 -5.875 5.046875 -6.375 C 4.617188 -6.882812 4.007812 -7.144531 3.21875 -7.15625 Z M 1.984375 -7.15625 "/></g></g></g><g fill="#575757" fill-opacity="1"><g transform="translate(280.535494, 102.740688)"><g><path d="M 5.46875 -3.703125 L 1.984375 -3.703125 L 1.984375 -0.859375 L 6.03125 -0.859375 L 6.03125 0 L 0.9375 0 L 0.9375 -8.015625 L 5.96875 -8.015625 L 5.96875 -7.15625 L 1.984375 -7.15625 L 1.984375 -4.578125 L 5.46875 -4.578125 Z M 5.46875 -3.703125 "/></g></g></g><g fill="#575757" fill-opacity="1"><g transform="translate(289.209414, 102.740688)"><g><path d="M 3.59375 -1.40625 L 5.875 -8.015625 L 7.03125 -8.015625 L 4.0625 0 L 3.125 0 L 0.15625 -8.015625 L 1.3125 -8.015625 Z M 3.59375 -1.40625 "/></g></g></g><g fill="#575757" fill-opacity="1"><g transform="translate(298.649525, 102.740688)"><g><path d="M 5.46875 -3.703125 L 1.984375 -3.703125 L 1.984375 -0.859375 L 6.03125 -0.859375 L 6.03125 0 L 0.9375 0 L 0.9375 -8.015625 L 5.96875 -8.015625 L 5.96875 -7.15625 L 1.984375 -7.15625 L 1.984375 -4.578125 L 5.46875 -4.578125 Z M 5.46875 -3.703125 "/></g></g></g><g fill="#575757" fill-opacity="1"><g transform="translate(307.323446, 102.740688)"><g><path d="M 2 -0.859375 L 5.796875 -0.859375 L 5.796875 0 L 0.9375 0 L 0.9375 -8.015625 L 2 -8.015625 Z M 2 -0.859375 "/></g></g></g><g fill="#575757" fill-opacity="1"><g transform="translate(315.655613, 102.740688)"><g><path d="M 7.09375 -3.75 C 7.09375 -2.96875 6.960938 -2.28125 6.703125 -1.6875 C 6.441406 -1.101562 6.066406 -0.65625 5.578125 -0.34375 C 5.097656 -0.0390625 4.535156 0.109375 3.890625 0.109375 C 3.253906 0.109375 2.691406 -0.046875 2.203125 -0.359375 C 1.710938 -0.671875 1.332031 -1.113281 1.0625 -1.6875 C 0.789062 -2.257812 0.65625 -2.921875 0.65625 -3.671875 L 0.65625 -4.265625 C 0.65625 -5.035156 0.785156 -5.710938 1.046875 -6.296875 C 1.316406 -6.890625 1.695312 -7.34375 2.1875 -7.65625 C 2.675781 -7.96875 3.238281 -8.125 3.875 -8.125 C 4.519531 -8.125 5.085938 -7.96875 5.578125 -7.65625 C 6.066406 -7.351562 6.441406 -6.90625 6.703125 -6.3125 C 6.960938 -5.726562 7.09375 -5.046875 7.09375 -4.265625 Z M 6.046875 -4.265625 C 6.046875 -5.222656 5.851562 -5.953125 5.46875 -6.453125 C 5.09375 -6.960938 4.5625 -7.21875 3.875 -7.21875 C 3.207031 -7.21875 2.679688 -6.960938 2.296875 -6.453125 C 1.910156 -5.953125 1.710938 -5.25 1.703125 -4.34375 L 1.703125 -3.75 C 1.703125 -2.832031 1.894531 -2.109375 2.28125 -1.578125 C 2.664062 -1.046875 3.203125 -0.78125 3.890625 -0.78125 C 4.566406 -0.78125 5.09375 -1.03125 5.46875 -1.53125 C 5.84375 -2.03125 6.035156 -2.742188 6.046875 -3.671875 Z M 6.046875 -4.265625 "/></g></g></g><g fill="#575757" fill-opacity="1"><g transform="translate(325.674499, 102.740688)"><g><path d="M 1.984375 -3.140625 L 1.984375 0 L 0.9375 0 L 0.9375 -8.015625 L 3.890625 -8.015625 C 4.765625 -8.015625 5.453125 -7.789062 5.953125 -7.34375 C 6.453125 -6.894531 6.703125 -6.300781 6.703125 -5.5625 C 6.703125 -4.789062 6.457031 -4.191406 5.96875 -3.765625 C 5.476562 -3.347656 4.78125 -3.140625 3.875 -3.140625 Z M 1.984375 -4 L 3.890625 -4 C 4.453125 -4 4.882812 -4.128906 5.1875 -4.390625 C 5.488281 -4.660156 5.640625 -5.050781 5.640625 -5.5625 C 5.640625 -6.039062 5.488281 -6.421875 5.1875 -6.703125 C 4.882812 -6.992188 4.472656 -7.144531 3.953125 -7.15625 L 1.984375 -7.15625 Z M 1.984375 -4 "/></g></g></g><g fill="#575757" fill-opacity="1"><g transform="translate(335.053976, 102.740688)"><g><path d="M 5.46875 -3.703125 L 1.984375 -3.703125 L 1.984375 -0.859375 L 6.03125 -0.859375 L 6.03125 0 L 0.9375 0 L 0.9375 -8.015625 L 5.96875 -8.015625 L 5.96875 -7.15625 L 1.984375 -7.15625 L 1.984375 -4.578125 L 5.46875 -4.578125 Z M 5.46875 -3.703125 "/></g></g></g><g fill="#575757" fill-opacity="1"><g transform="translate(343.727897, 102.740688)"><g><path d="M 2.296875 -8.015625 L 4.921875 -1.46875 L 7.546875 -8.015625 L 8.90625 -8.015625 L 8.90625 0 L 7.859375 0 L 7.859375 -3.125 L 7.953125 -6.5 L 5.328125 0 L 4.515625 0 L 1.890625 -6.484375 L 1.984375 -3.125 L 1.984375 0 L 0.9375 0 L 0.9375 -8.015625 Z M 2.296875 -8.015625 "/></g></g></g><g fill="#575757" fill-opacity="1"><g transform="translate(355.841401, 102.740688)"><g><path d="M 5.46875 -3.703125 L 1.984375 -3.703125 L 1.984375 -0.859375 L 6.03125 -0.859375 L 6.03125 0 L 0.9375 0 L 0.9375 -8.015625 L 5.96875 -8.015625 L 5.96875 -7.15625 L 1.984375 -7.15625 L 1.984375 -4.578125 L 5.46875 -4.578125 Z M 5.46875 -3.703125 "/></g></g></g><g fill="#575757" fill-opacity="1"><g transform="translate(364.515322, 102.740688)"><g><path d="M 7.09375 0 L 6.03125 0 L 2 -6.1875 L 2 0 L 0.9375 0 L 0.9375 -8.015625 L 2 -8.015625 L 6.046875 -1.8125 L 6.046875 -8.015625 L 7.09375 -8.015625 Z M 7.09375 0 "/></g></g></g><g fill="#575757" fill-opacity="1"><g transform="translate(374.82084, 102.740688)"><g><path d="M 6.46875 -7.15625 L 3.890625 -7.15625 L 3.890625 0 L 2.84375 0 L 2.84375 -7.15625 L 0.265625 -7.15625 L 0.265625 -8.015625 L 6.46875 -8.015625 Z M 6.46875 -7.15625 "/></g></g></g><g fill="#575757" fill-opacity="1"><g transform="translate(383.814466, 102.740688)"><g/></g></g><g fill="#575757" fill-opacity="1"><g transform="translate(388.866913, 102.740688)"><g><path d="M 5.359375 -2.09375 L 2 -2.09375 L 1.25 0 L 0.15625 0 L 3.21875 -8.015625 L 4.140625 -8.015625 L 7.203125 0 L 6.125 0 Z M 2.3125 -2.96875 L 5.046875 -2.96875 L 3.671875 -6.71875 Z M 2.3125 -2.96875 "/></g></g></g><g fill="#575757" fill-opacity="1"><g transform="translate(398.488935, 102.740688)"><g><path d="M 7.09375 0 L 6.03125 0 L 2 -6.1875 L 2 0 L 0.9375 0 L 0.9375 -8.015625 L 2 -8.015625 L 6.046875 -1.8125 L 6.046875 -8.015625 L 7.09375 -8.015625 Z M 7.09375 0 "/></g></g></g><g fill="#575757" fill-opacity="1"><g transform="translate(408.794464, 102.740688)"><g><path d="M 0.9375 0 L 0.9375 -8.015625 L 3.1875 -8.015625 C 3.882812 -8.015625 4.5 -7.859375 5.03125 -7.546875 C 5.570312 -7.242188 5.988281 -6.804688 6.28125 -6.234375 C 6.570312 -5.671875 6.722656 -5.019531 6.734375 -4.28125 L 6.734375 -3.765625 C 6.734375 -3.015625 6.585938 -2.351562 6.296875 -1.78125 C 6.003906 -1.207031 5.585938 -0.769531 5.046875 -0.46875 C 4.503906 -0.164062 3.875 -0.0078125 3.15625 0 Z M 1.984375 -7.15625 L 1.984375 -0.859375 L 3.09375 -0.859375 C 3.914062 -0.859375 4.550781 -1.113281 5 -1.625 C 5.457031 -2.132812 5.6875 -2.859375 5.6875 -3.796875 L 5.6875 -4.265625 C 5.6875 -5.171875 5.472656 -5.875 5.046875 -6.375 C 4.617188 -6.882812 4.007812 -7.144531 3.21875 -7.15625 Z M 1.984375 -7.15625 "/></g></g></g><g fill="#575757" fill-opacity="1"><g transform="translate(255.35048, 118.262909)"><g><path d="M 5.359375 -2.09375 L 2 -2.09375 L 1.25 0 L 0.15625 0 L 3.21875 -8.015625 L 4.140625 -8.015625 L 7.203125 0 L 6.125 0 Z M 2.3125 -2.96875 L 5.046875 -2.96875 L 3.671875 -6.71875 Z M 2.3125 -2.96875 "/></g></g></g><g fill="#575757" fill-opacity="1"><g transform="translate(264.972493, 118.262909)"><g><path d="M 6.578125 -8.015625 L 6.578125 -2.5625 C 6.578125 -1.8125 6.335938 -1.191406 5.859375 -0.703125 C 5.390625 -0.222656 4.75 0.0390625 3.9375 0.09375 L 3.65625 0.109375 C 2.78125 0.109375 2.082031 -0.125 1.5625 -0.59375 C 1.039062 -1.070312 0.773438 -1.726562 0.765625 -2.5625 L 0.765625 -8.015625 L 1.8125 -8.015625 L 1.8125 -2.59375 C 1.8125 -2.007812 1.972656 -1.554688 2.296875 -1.234375 C 2.617188 -0.910156 3.070312 -0.75 3.65625 -0.75 C 4.257812 -0.75 4.71875 -0.910156 5.03125 -1.234375 C 5.351562 -1.554688 5.515625 -2.003906 5.515625 -2.578125 L 5.515625 -8.015625 Z M 6.578125 -8.015625 "/></g></g></g><g fill="#575757" fill-opacity="1"><g transform="translate(274.550409, 118.262909)"><g><path d="M 6.46875 -7.15625 L 3.890625 -7.15625 L 3.890625 0 L 2.84375 0 L 2.84375 -7.15625 L 0.265625 -7.15625 L 0.265625 -8.015625 L 6.46875 -8.015625 Z M 6.46875 -7.15625 "/></g></g></g><g fill="#575757" fill-opacity="1"><g transform="translate(283.544036, 118.262909)"><g><path d="M 7.09375 -3.75 C 7.09375 -2.96875 6.960938 -2.28125 6.703125 -1.6875 C 6.441406 -1.101562 6.066406 -0.65625 5.578125 -0.34375 C 5.097656 -0.0390625 4.535156 0.109375 3.890625 0.109375 C 3.253906 0.109375 2.691406 -0.046875 2.203125 -0.359375 C 1.710938 -0.671875 1.332031 -1.113281 1.0625 -1.6875 C 0.789062 -2.257812 0.65625 -2.921875 0.65625 -3.671875 L 0.65625 -4.265625 C 0.65625 -5.035156 0.785156 -5.710938 1.046875 -6.296875 C 1.316406 -6.890625 1.695312 -7.34375 2.1875 -7.65625 C 2.675781 -7.96875 3.238281 -8.125 3.875 -8.125 C 4.519531 -8.125 5.085938 -7.96875 5.578125 -7.65625 C 6.066406 -7.351562 6.441406 -6.90625 6.703125 -6.3125 C 6.960938 -5.726562 7.09375 -5.046875 7.09375 -4.265625 Z M 6.046875 -4.265625 C 6.046875 -5.222656 5.851562 -5.953125 5.46875 -6.453125 C 5.09375 -6.960938 4.5625 -7.21875 3.875 -7.21875 C 3.207031 -7.21875 2.679688 -6.960938 2.296875 -6.453125 C 1.910156 -5.953125 1.710938 -5.25 1.703125 -4.34375 L 1.703125 -3.75 C 1.703125 -2.832031 1.894531 -2.109375 2.28125 -1.578125 C 2.664062 -1.046875 3.203125 -0.78125 3.890625 -0.78125 C 4.566406 -0.78125 5.09375 -1.03125 5.46875 -1.53125 C 5.84375 -2.03125 6.035156 -2.742188 6.046875 -3.671875 Z M 6.046875 -4.265625 "/></g></g></g><g fill="#575757" fill-opacity="1"><g transform="translate(293.562925, 118.262909)"><g><path d="M 2.296875 -8.015625 L 4.921875 -1.46875 L 7.546875 -8.015625 L 8.90625 -8.015625 L 8.90625 0 L 7.859375 0 L 7.859375 -3.125 L 7.953125 -6.5 L 5.328125 0 L 4.515625 0 L 1.890625 -6.484375 L 1.984375 -3.125 L 1.984375 0 L 0.9375 0 L 0.9375 -8.015625 Z M 2.296875 -8.015625 "/></g></g></g><g fill="#575757" fill-opacity="1"><g transform="translate(305.676432, 118.262909)"><g><path d="M 5.359375 -2.09375 L 2 -2.09375 L 1.25 0 L 0.15625 0 L 3.21875 -8.015625 L 4.140625 -8.015625 L 7.203125 0 L 6.125 0 Z M 2.3125 -2.96875 L 5.046875 -2.96875 L 3.671875 -6.71875 Z M 2.3125 -2.96875 "/></g></g></g><g fill="#575757" fill-opacity="1"><g transform="translate(315.298443, 118.262909)"><g><path d="M 6.46875 -7.15625 L 3.890625 -7.15625 L 3.890625 0 L 2.84375 0 L 2.84375 -7.15625 L 0.265625 -7.15625 L 0.265625 -8.015625 L 6.46875 -8.015625 Z M 6.46875 -7.15625 "/></g></g></g><g fill="#575757" fill-opacity="1"><g transform="translate(324.292069, 118.262909)"><g><path d="M 2.0625 0 L 1.015625 0 L 1.015625 -8.015625 L 2.0625 -8.015625 Z M 2.0625 0 "/></g></g></g><g fill="#575757" fill-opacity="1"><g transform="translate(329.620113, 118.262909)"><g><path d="M 7.09375 -3.75 C 7.09375 -2.96875 6.960938 -2.28125 6.703125 -1.6875 C 6.441406 -1.101562 6.066406 -0.65625 5.578125 -0.34375 C 5.097656 -0.0390625 4.535156 0.109375 3.890625 0.109375 C 3.253906 0.109375 2.691406 -0.046875 2.203125 -0.359375 C 1.710938 -0.671875 1.332031 -1.113281 1.0625 -1.6875 C 0.789062 -2.257812 0.65625 -2.921875 0.65625 -3.671875 L 0.65625 -4.265625 C 0.65625 -5.035156 0.785156 -5.710938 1.046875 -6.296875 C 1.316406 -6.890625 1.695312 -7.34375 2.1875 -7.65625 C 2.675781 -7.96875 3.238281 -8.125 3.875 -8.125 C 4.519531 -8.125 5.085938 -7.96875 5.578125 -7.65625 C 6.066406 -7.351562 6.441406 -6.90625 6.703125 -6.3125 C 6.960938 -5.726562 7.09375 -5.046875 7.09375 -4.265625 Z M 6.046875 -4.265625 C 6.046875 -5.222656 5.851562 -5.953125 5.46875 -6.453125 C 5.09375 -6.960938 4.5625 -7.21875 3.875 -7.21875 C 3.207031 -7.21875 2.679688 -6.960938 2.296875 -6.453125 C 1.910156 -5.953125 1.710938 -5.25 1.703125 -4.34375 L 1.703125 -3.75 C 1.703125 -2.832031 1.894531 -2.109375 2.28125 -1.578125 C 2.664062 -1.046875 3.203125 -0.78125 3.890625 -0.78125 C 4.566406 -0.78125 5.09375 -1.03125 5.46875 -1.53125 C 5.84375 -2.03125 6.035156 -2.742188 6.046875 -3.671875 Z M 6.046875 -4.265625 "/></g></g></g><g fill="#575757" fill-opacity="1"><g transform="translate(339.639, 118.262909)"><g><path d="M 7.09375 0 L 6.03125 0 L 2 -6.1875 L 2 0 L 0.9375 0 L 0.9375 -8.015625 L 2 -8.015625 L 6.046875 -1.8125 L 6.046875 -8.015625 L 7.09375 -8.015625 Z M 7.09375 0 "/></g></g></g><g fill="#575757" fill-opacity="1"><g transform="translate(349.944518, 118.262909)"><g><path d="M 3.296875 -3.578125 C 2.390625 -3.835938 1.726562 -4.15625 1.3125 -4.53125 C 0.894531 -4.914062 0.6875 -5.382812 0.6875 -5.9375 C 0.6875 -6.570312 0.9375 -7.09375 1.4375 -7.5 C 1.945312 -7.914062 2.609375 -8.125 3.421875 -8.125 C 3.972656 -8.125 4.460938 -8.015625 4.890625 -7.796875 C 5.328125 -7.585938 5.660156 -7.296875 5.890625 -6.921875 C 6.128906 -6.554688 6.25 -6.148438 6.25 -5.703125 L 5.1875 -5.703125 C 5.1875 -6.179688 5.03125 -6.5625 4.71875 -6.84375 C 4.414062 -7.125 3.984375 -7.265625 3.421875 -7.265625 C 2.898438 -7.265625 2.492188 -7.148438 2.203125 -6.921875 C 1.910156 -6.691406 1.765625 -6.367188 1.765625 -5.953125 C 1.765625 -5.628906 1.898438 -5.351562 2.171875 -5.125 C 2.453125 -4.90625 2.925781 -4.703125 3.59375 -4.515625 C 4.257812 -4.328125 4.78125 -4.117188 5.15625 -3.890625 C 5.53125 -3.660156 5.804688 -3.394531 5.984375 -3.09375 C 6.171875 -2.800781 6.265625 -2.445312 6.265625 -2.03125 C 6.265625 -1.382812 6.007812 -0.863281 5.5 -0.46875 C 5 -0.0820312 4.320312 0.109375 3.46875 0.109375 C 2.925781 0.109375 2.414062 0.00390625 1.9375 -0.203125 C 1.457031 -0.410156 1.085938 -0.695312 0.828125 -1.0625 C 0.566406 -1.4375 0.4375 -1.859375 0.4375 -2.328125 L 1.5 -2.328125 C 1.5 -1.835938 1.675781 -1.453125 2.03125 -1.171875 C 2.394531 -0.890625 2.875 -0.75 3.46875 -0.75 C 4.03125 -0.75 4.457031 -0.863281 4.75 -1.09375 C 5.050781 -1.320312 5.203125 -1.628906 5.203125 -2.015625 C 5.203125 -2.410156 5.0625 -2.71875 4.78125 -2.9375 C 4.507812 -3.15625 4.015625 -3.367188 3.296875 -3.578125 Z M 3.296875 -3.578125 "/></g></g></g><path stroke-linecap="butt" transform="matrix(-0.75, 0, 0, -0.75, 538.608024, 736.022215)" fill="none" stroke-linejoin="miter" d="M -0.00180172 0.498371 L 623.649271 0.498371 " stroke="#575757" stroke-width="1" stroke-opacity="1" stroke-miterlimit="4"/><g fill="#575757" fill-opacity="1"><g transform="translate(82.000004, 200.137701)"><g><path d="M 5.390625 -5.96875 L 3.25 -5.96875 L 3.25 0 L 2.375 0 L 2.375 -5.96875 L 0.21875 -5.96875 L 0.21875 -6.6875 L 5.390625 -6.6875 Z M 5.390625 -5.96875 "/></g></g></g><g fill="#575757" fill-opacity="1"><g transform="translate(89.49251, 200.137701)"><g><path d="M 5.921875 -3.125 C 5.921875 -2.46875 5.8125 -1.894531 5.59375 -1.40625 C 5.375 -0.925781 5.0625 -0.554688 4.65625 -0.296875 C 4.25 -0.0351562 3.773438 0.09375 3.234375 0.09375 C 2.710938 0.09375 2.242188 -0.0351562 1.828125 -0.296875 C 1.421875 -0.554688 1.101562 -0.925781 0.875 -1.40625 C 0.65625 -1.882812 0.546875 -2.4375 0.546875 -3.0625 L 0.546875 -3.546875 C 0.546875 -4.191406 0.65625 -4.757812 0.875 -5.25 C 1.101562 -5.75 1.421875 -6.128906 1.828125 -6.390625 C 2.234375 -6.648438 2.703125 -6.78125 3.234375 -6.78125 C 3.765625 -6.78125 4.234375 -6.648438 4.640625 -6.390625 C 5.054688 -6.128906 5.375 -5.753906 5.59375 -5.265625 C 5.8125 -4.773438 5.921875 -4.203125 5.921875 -3.546875 Z M 5.046875 -3.5625 C 5.046875 -4.351562 4.882812 -4.957031 4.5625 -5.375 C 4.25 -5.800781 3.804688 -6.015625 3.234375 -6.015625 C 2.671875 -6.015625 2.226562 -5.800781 1.90625 -5.375 C 1.59375 -4.957031 1.429688 -4.375 1.421875 -3.625 L 1.421875 -3.125 C 1.421875 -2.351562 1.582031 -1.75 1.90625 -1.3125 C 2.226562 -0.875 2.671875 -0.65625 3.234375 -0.65625 C 3.804688 -0.65625 4.25 -0.863281 4.5625 -1.28125 C 4.875 -1.695312 5.035156 -2.289062 5.046875 -3.0625 Z M 5.046875 -3.5625 "/></g></g></g><g fill="#575757" fill-opacity="1"><g transform="translate(97.839066, 200.137701)"><g/></g></g><g fill="#575757" fill-opacity="1"><g transform="translate(102.048537, 200.137701)"><g><path d="M 2.21875 -2.109375 L 2.34375 -1.21875 L 2.53125 -2.015625 L 3.859375 -6.6875 L 4.609375 -6.6875 L 5.890625 -2.015625 L 6.078125 -1.21875 L 6.21875 -2.109375 L 7.25 -6.6875 L 8.140625 -6.6875 L 6.515625 0 L 5.71875 0 L 4.34375 -4.875 L 4.234375 -5.390625 L 4.125 -4.875 L 2.703125 0 L 1.890625 0 L 0.28125 -6.6875 L 1.15625 -6.6875 Z M 2.21875 -2.109375 "/></g></g></g><g fill="#575757" fill-opacity="1"><g transform="translate(112.27309, 200.137701)"><g><path d="M 5.921875 0 L 5.03125 0 L 5.03125 -3.09375 L 1.65625 -3.09375 L 1.65625 0 L 0.78125 0 L 0.78125 -6.6875 L 1.65625 -6.6875 L 1.65625 -3.8125 L 5.03125 -3.8125 L 5.03125 -6.6875 L 5.921875 -6.6875 Z M 5.921875 0 "/></g></g></g><g fill="#575757" fill-opacity="1"><g transform="translate(120.858413, 200.137701)"><g><path d="M 5.921875 -3.125 C 5.921875 -2.46875 5.8125 -1.894531 5.59375 -1.40625 C 5.375 -0.925781 5.0625 -0.554688 4.65625 -0.296875 C 4.25 -0.0351562 3.773438 0.09375 3.234375 0.09375 C 2.710938 0.09375 2.242188 -0.0351562 1.828125 -0.296875 C 1.421875 -0.554688 1.101562 -0.925781 0.875 -1.40625 C 0.65625 -1.882812 0.546875 -2.4375 0.546875 -3.0625 L 0.546875 -3.546875 C 0.546875 -4.191406 0.65625 -4.757812 0.875 -5.25 C 1.101562 -5.75 1.421875 -6.128906 1.828125 -6.390625 C 2.234375 -6.648438 2.703125 -6.78125 3.234375 -6.78125 C 3.765625 -6.78125 4.234375 -6.648438 4.640625 -6.390625 C 5.054688 -6.128906 5.375 -5.753906 5.59375 -5.265625 C 5.8125 -4.773438 5.921875 -4.203125 5.921875 -3.546875 Z M 5.046875 -3.5625 C 5.046875 -4.351562 4.882812 -4.957031 4.5625 -5.375 C 4.25 -5.800781 3.804688 -6.015625 3.234375 -6.015625 C 2.671875 -6.015625 2.226562 -5.800781 1.90625 -5.375 C 1.59375 -4.957031 1.429688 -4.375 1.421875 -3.625 L 1.421875 -3.125 C 1.421875 -2.351562 1.582031 -1.75 1.90625 -1.3125 C 2.226562 -0.875 2.671875 -0.65625 3.234375 -0.65625 C 3.804688 -0.65625 4.25 -0.863281 4.5625 -1.28125 C 4.875 -1.695312 5.035156 -2.289062 5.046875 -3.0625 Z M 5.046875 -3.5625 "/></g></g></g><g fill="#575757" fill-opacity="1"><g transform="translate(129.204969, 200.137701)"><g><path d="M 1.921875 -6.6875 L 4.09375 -1.234375 L 6.28125 -6.6875 L 7.4375 -6.6875 L 7.4375 0 L 6.546875 0 L 6.546875 -2.609375 L 6.625 -5.421875 L 4.4375 0 L 3.765625 0 L 1.578125 -5.40625 L 1.65625 -2.609375 L 1.65625 0 L 0.78125 0 L 0.78125 -6.6875 Z M 1.921875 -6.6875 "/></g></g></g><g fill="#575757" fill-opacity="1"><g transform="translate(139.296358, 200.137701)"><g/></g></g><g fill="#575757" fill-opacity="1"><g transform="translate(143.505829, 200.137701)"><g><path d="M 1.71875 0 L 0.84375 0 L 0.84375 -6.6875 L 1.71875 -6.6875 Z M 1.71875 0 "/></g></g></g><g fill="#575757" fill-opacity="1"><g transform="translate(147.944882, 200.137701)"><g><path d="M 5.390625 -5.96875 L 3.25 -5.96875 L 3.25 0 L 2.375 0 L 2.375 -5.96875 L 0.21875 -5.96875 L 0.21875 -6.6875 L 5.390625 -6.6875 Z M 5.390625 -5.96875 "/></g></g></g><g fill="#575757" fill-opacity="1"><g transform="translate(155.437389, 200.137701)"><g/></g></g><g fill="#575757" fill-opacity="1"><g transform="translate(159.646859, 200.137701)"><g><path d="M 1.921875 -6.6875 L 4.09375 -1.234375 L 6.28125 -6.6875 L 7.4375 -6.6875 L 7.4375 0 L 6.546875 0 L 6.546875 -2.609375 L 6.625 -5.421875 L 4.4375 0 L 3.765625 0 L 1.578125 -5.40625 L 1.65625 -2.609375 L 1.65625 0 L 0.78125 0 L 0.78125 -6.6875 Z M 1.921875 -6.6875 "/></g></g></g><g fill="#575757" fill-opacity="1"><g transform="translate(169.738248, 200.137701)"><g><path d="M 4.46875 -1.75 L 1.671875 -1.75 L 1.03125 0 L 0.125 0 L 2.6875 -6.6875 L 3.453125 -6.6875 L 6.015625 0 L 5.109375 0 Z M 1.9375 -2.46875 L 4.203125 -2.46875 L 3.0625 -5.59375 Z M 1.9375 -2.46875 "/></g></g></g><g fill="#575757" fill-opacity="1"><g transform="translate(177.75421, 200.137701)"><g><path d="M 2.8125 -3.328125 L 4.5625 -6.6875 L 5.5625 -6.6875 L 3.25 -2.5 L 3.25 0 L 2.375 0 L 2.375 -2.5 L 0.0625 -6.6875 L 1.078125 -6.6875 Z M 2.8125 -3.328125 "/></g></g></g><g fill="#575757" fill-opacity="1"><g transform="translate(185.283444, 200.137701)"><g/></g></g><g fill="#575757" fill-opacity="1"><g transform="translate(189.49292, 200.137701)"><g><path d="M 5.6875 -2.125 C 5.613281 -1.414062 5.351562 -0.867188 4.90625 -0.484375 C 4.46875 -0.0976562 3.882812 0.09375 3.15625 0.09375 C 2.363281 0.09375 1.726562 -0.1875 1.25 -0.75 C 0.78125 -1.320312 0.546875 -2.082031 0.546875 -3.03125 L 0.546875 -3.671875 C 0.546875 -4.296875 0.65625 -4.84375 0.875 -5.3125 C 1.101562 -5.78125 1.421875 -6.140625 1.828125 -6.390625 C 2.234375 -6.648438 2.703125 -6.78125 3.234375 -6.78125 C 3.941406 -6.78125 4.507812 -6.582031 4.9375 -6.1875 C 5.375 -5.789062 5.625 -5.238281 5.6875 -4.53125 L 4.8125 -4.53125 C 4.726562 -5.070312 4.554688 -5.457031 4.296875 -5.6875 C 4.046875 -5.925781 3.691406 -6.046875 3.234375 -6.046875 C 2.671875 -6.046875 2.226562 -5.835938 1.90625 -5.421875 C 1.59375 -5.003906 1.4375 -4.414062 1.4375 -3.65625 L 1.4375 -3 C 1.4375 -2.28125 1.585938 -1.703125 1.890625 -1.265625 C 2.191406 -0.835938 2.613281 -0.625 3.15625 -0.625 C 3.644531 -0.625 4.019531 -0.734375 4.28125 -0.953125 C 4.550781 -1.179688 4.726562 -1.570312 4.8125 -2.125 Z M 5.6875 -2.125 "/></g></g></g><g fill="#575757" fill-opacity="1"><g transform="translate(197.495101, 200.137701)"><g><path d="M 5.921875 -3.125 C 5.921875 -2.46875 5.8125 -1.894531 5.59375 -1.40625 C 5.375 -0.925781 5.0625 -0.554688 4.65625 -0.296875 C 4.25 -0.0351562 3.773438 0.09375 3.234375 0.09375 C 2.710938 0.09375 2.242188 -0.0351562 1.828125 -0.296875 C 1.421875 -0.554688 1.101562 -0.925781 0.875 -1.40625 C 0.65625 -1.882812 0.546875 -2.4375 0.546875 -3.0625 L 0.546875 -3.546875 C 0.546875 -4.191406 0.65625 -4.757812 0.875 -5.25 C 1.101562 -5.75 1.421875 -6.128906 1.828125 -6.390625 C 2.234375 -6.648438 2.703125 -6.78125 3.234375 -6.78125 C 3.765625 -6.78125 4.234375 -6.648438 4.640625 -6.390625 C 5.054688 -6.128906 5.375 -5.753906 5.59375 -5.265625 C 5.8125 -4.773438 5.921875 -4.203125 5.921875 -3.546875 Z M 5.046875 -3.5625 C 5.046875 -4.351562 4.882812 -4.957031 4.5625 -5.375 C 4.25 -5.800781 3.804688 -6.015625 3.234375 -6.015625 C 2.671875 -6.015625 2.226562 -5.800781 1.90625 -5.375 C 1.59375 -4.957031 1.429688 -4.375 1.421875 -3.625 L 1.421875 -3.125 C 1.421875 -2.351562 1.582031 -1.75 1.90625 -1.3125 C 2.226562 -0.875 2.671875 -0.65625 3.234375 -0.65625 C 3.804688 -0.65625 4.25 -0.863281 4.5625 -1.28125 C 4.875 -1.695312 5.035156 -2.289062 5.046875 -3.0625 Z M 5.046875 -3.5625 "/></g></g></g><g fill="#575757" fill-opacity="1"><g transform="translate(205.841663, 200.137701)"><g><path d="M 5.921875 0 L 5.03125 0 L 1.65625 -5.15625 L 1.65625 0 L 0.78125 0 L 0.78125 -6.6875 L 1.65625 -6.6875 L 5.03125 -1.515625 L 5.03125 -6.6875 L 5.921875 -6.6875 Z M 5.921875 0 "/></g></g></g><g fill="#575757" fill-opacity="1"><g transform="translate(214.426991, 200.137701)"><g><path d="M 5.6875 -2.125 C 5.613281 -1.414062 5.351562 -0.867188 4.90625 -0.484375 C 4.46875 -0.0976562 3.882812 0.09375 3.15625 0.09375 C 2.363281 0.09375 1.726562 -0.1875 1.25 -0.75 C 0.78125 -1.320312 0.546875 -2.082031 0.546875 -3.03125 L 0.546875 -3.671875 C 0.546875 -4.296875 0.65625 -4.84375 0.875 -5.3125 C 1.101562 -5.78125 1.421875 -6.140625 1.828125 -6.390625 C 2.234375 -6.648438 2.703125 -6.78125 3.234375 -6.78125 C 3.941406 -6.78125 4.507812 -6.582031 4.9375 -6.1875 C 5.375 -5.789062 5.625 -5.238281 5.6875 -4.53125 L 4.8125 -4.53125 C 4.726562 -5.070312 4.554688 -5.457031 4.296875 -5.6875 C 4.046875 -5.925781 3.691406 -6.046875 3.234375 -6.046875 C 2.671875 -6.046875 2.226562 -5.835938 1.90625 -5.421875 C 1.59375 -5.003906 1.4375 -4.414062 1.4375 -3.65625 L 1.4375 -3 C 1.4375 -2.28125 1.585938 -1.703125 1.890625 -1.265625 C 2.191406 -0.835938 2.613281 -0.625 3.15625 -0.625 C 3.644531 -0.625 4.019531 -0.734375 4.28125 -0.953125 C 4.550781 -1.179688 4.726562 -1.570312 4.8125 -2.125 Z M 5.6875 -2.125 "/></g></g></g><g fill="#575757" fill-opacity="1"><g transform="translate(222.429172, 200.137701)"><g><path d="M 4.5625 -3.09375 L 1.65625 -3.09375 L 1.65625 -0.71875 L 5.03125 -0.71875 L 5.03125 0 L 0.78125 0 L 0.78125 -6.6875 L 4.984375 -6.6875 L 4.984375 -5.96875 L 1.65625 -5.96875 L 1.65625 -3.8125 L 4.5625 -3.8125 Z M 4.5625 -3.09375 "/></g></g></g><g fill="#575757" fill-opacity="1"><g transform="translate(229.655367, 200.137701)"><g><path d="M 3.234375 -2.703125 L 1.65625 -2.703125 L 1.65625 0 L 0.765625 0 L 0.765625 -6.6875 L 2.984375 -6.6875 C 3.734375 -6.6875 4.3125 -6.515625 4.71875 -6.171875 C 5.125 -5.828125 5.328125 -5.328125 5.328125 -4.671875 C 5.328125 -4.253906 5.210938 -3.890625 4.984375 -3.578125 C 4.765625 -3.273438 4.457031 -3.046875 4.0625 -2.890625 L 5.625 -0.0625 L 5.625 0 L 4.6875 0 Z M 1.65625 -3.421875 L 3.015625 -3.421875 C 3.453125 -3.421875 3.800781 -3.535156 4.0625 -3.765625 C 4.320312 -3.992188 4.453125 -4.296875 4.453125 -4.671875 C 4.453125 -5.085938 4.328125 -5.40625 4.078125 -5.625 C 3.828125 -5.84375 3.472656 -5.957031 3.015625 -5.96875 L 1.65625 -5.96875 Z M 1.65625 -3.421875 "/></g></g></g><g fill="#575757" fill-opacity="1"><g transform="translate(237.326949, 200.137701)"><g><path d="M 5.921875 0 L 5.03125 0 L 1.65625 -5.15625 L 1.65625 0 L 0.78125 0 L 0.78125 -6.6875 L 1.65625 -6.6875 L 5.03125 -1.515625 L 5.03125 -6.6875 L 5.921875 -6.6875 Z M 5.921875 0 "/></g></g></g><g fill="#575757" fill-opacity="1"><g transform="translate(245.912277, 200.137701)"><g><path d="M 0.609375 1.328125 L 0.140625 1 C 0.421875 0.601562 0.566406 0.191406 0.578125 -0.234375 L 0.578125 -1 L 1.421875 -1 L 1.421875 -0.34375 C 1.421875 -0.03125 1.34375 0.273438 1.1875 0.578125 C 1.03125 0.890625 0.835938 1.140625 0.609375 1.328125 Z M 0.609375 1.328125 "/></g></g></g><g fill="#575757" fill-opacity="1"><g transform="translate(82.000004, 592.387473)"><g><path d="M 2.75 -2.984375 C 1.988281 -3.203125 1.4375 -3.46875 1.09375 -3.78125 C 0.75 -4.09375 0.578125 -4.484375 0.578125 -4.953125 C 0.578125 -5.484375 0.785156 -5.921875 1.203125 -6.265625 C 1.628906 -6.609375 2.179688 -6.78125 2.859375 -6.78125 C 3.316406 -6.78125 3.722656 -6.691406 4.078125 -6.515625 C 4.441406 -6.335938 4.722656 -6.09375 4.921875 -5.78125 C 5.117188 -5.46875 5.21875 -5.125 5.21875 -4.75 L 4.328125 -4.75 C 4.328125 -5.15625 4.195312 -5.472656 3.9375 -5.703125 C 3.6875 -5.929688 3.328125 -6.046875 2.859375 -6.046875 C 2.421875 -6.046875 2.078125 -5.953125 1.828125 -5.765625 C 1.585938 -5.578125 1.46875 -5.3125 1.46875 -4.96875 C 1.46875 -4.695312 1.582031 -4.46875 1.8125 -4.28125 C 2.039062 -4.09375 2.429688 -3.921875 2.984375 -3.765625 C 3.546875 -3.609375 3.984375 -3.4375 4.296875 -3.25 C 4.609375 -3.0625 4.84375 -2.835938 5 -2.578125 C 5.15625 -2.328125 5.234375 -2.035156 5.234375 -1.703125 C 5.234375 -1.160156 5.019531 -0.722656 4.59375 -0.390625 C 4.164062 -0.0664062 3.597656 0.09375 2.890625 0.09375 C 2.429688 0.09375 2.003906 0.00390625 1.609375 -0.171875 C 1.210938 -0.347656 0.90625 -0.585938 0.6875 -0.890625 C 0.476562 -1.203125 0.375 -1.550781 0.375 -1.9375 L 1.25 -1.9375 C 1.25 -1.53125 1.398438 -1.207031 1.703125 -0.96875 C 2.003906 -0.738281 2.398438 -0.625 2.890625 -0.625 C 3.359375 -0.625 3.71875 -0.71875 3.96875 -0.90625 C 4.21875 -1.101562 4.34375 -1.363281 4.34375 -1.6875 C 4.34375 -2.019531 4.226562 -2.273438 4 -2.453125 C 3.769531 -2.628906 3.351562 -2.804688 2.75 -2.984375 Z M 2.75 -2.984375 "/></g></g></g><g fill="#575757" fill-opacity="1"><g transform="translate(89.460374, 592.387473)"><g><path d="M 1.71875 0 L 0.84375 0 L 0.84375 -6.6875 L 1.71875 -6.6875 Z M 1.71875 0 "/></g></g></g><g fill="#575757" fill-opacity="1"><g transform="translate(93.899428, 592.387473)"><g><path d="M 5.921875 0 L 5.03125 0 L 1.65625 -5.15625 L 1.65625 0 L 0.78125 0 L 0.78125 -6.6875 L 1.65625 -6.6875 L 5.03125 -1.515625 L 5.03125 -6.6875 L 5.921875 -6.6875 Z M 5.921875 0 "/></g></g></g><g fill="#575757" fill-opacity="1"><g transform="translate(102.484751, 592.387473)"><g><path d="M 5.6875 -2.125 C 5.613281 -1.414062 5.351562 -0.867188 4.90625 -0.484375 C 4.46875 -0.0976562 3.882812 0.09375 3.15625 0.09375 C 2.363281 0.09375 1.726562 -0.1875 1.25 -0.75 C 0.78125 -1.320312 0.546875 -2.082031 0.546875 -3.03125 L 0.546875 -3.671875 C 0.546875 -4.296875 0.65625 -4.84375 0.875 -5.3125 C 1.101562 -5.78125 1.421875 -6.140625 1.828125 -6.390625 C 2.234375 -6.648438 2.703125 -6.78125 3.234375 -6.78125 C 3.941406 -6.78125 4.507812 -6.582031 4.9375 -6.1875 C 5.375 -5.789062 5.625 -5.238281 5.6875 -4.53125 L 4.8125 -4.53125 C 4.726562 -5.070312 4.554688 -5.457031 4.296875 -5.6875 C 4.046875 -5.925781 3.691406 -6.046875 3.234375 -6.046875 C 2.671875 -6.046875 2.226562 -5.835938 1.90625 -5.421875 C 1.59375 -5.003906 1.4375 -4.414062 1.4375 -3.65625 L 1.4375 -3 C 1.4375 -2.28125 1.585938 -1.703125 1.890625 -1.265625 C 2.191406 -0.835938 2.613281 -0.625 3.15625 -0.625 C 3.644531 -0.625 4.019531 -0.734375 4.28125 -0.953125 C 4.550781 -1.179688 4.726562 -1.570312 4.8125 -2.125 Z M 5.6875 -2.125 "/></g></g></g><g fill="#575757" fill-opacity="1"><g transform="translate(110.486937, 592.387473)"><g><path d="M 4.5625 -3.09375 L 1.65625 -3.09375 L 1.65625 -0.71875 L 5.03125 -0.71875 L 5.03125 0 L 0.78125 0 L 0.78125 -6.6875 L 4.984375 -6.6875 L 4.984375 -5.96875 L 1.65625 -5.96875 L 1.65625 -3.8125 L 4.5625 -3.8125 Z M 4.5625 -3.09375 "/></g></g></g><g fill="#575757" fill-opacity="1"><g transform="translate(117.713127, 592.387473)"><g><path d="M 3.234375 -2.703125 L 1.65625 -2.703125 L 1.65625 0 L 0.765625 0 L 0.765625 -6.6875 L 2.984375 -6.6875 C 3.734375 -6.6875 4.3125 -6.515625 4.71875 -6.171875 C 5.125 -5.828125 5.328125 -5.328125 5.328125 -4.671875 C 5.328125 -4.253906 5.210938 -3.890625 4.984375 -3.578125 C 4.765625 -3.273438 4.457031 -3.046875 4.0625 -2.890625 L 5.625 -0.0625 L 5.625 0 L 4.6875 0 Z M 1.65625 -3.421875 L 3.015625 -3.421875 C 3.453125 -3.421875 3.800781 -3.535156 4.0625 -3.765625 C 4.320312 -3.992188 4.453125 -4.296875 4.453125 -4.671875 C 4.453125 -5.085938 4.328125 -5.40625 4.078125 -5.625 C 3.828125 -5.84375 3.472656 -5.957031 3.015625 -5.96875 L 1.65625 -5.96875 Z M 1.65625 -3.421875 "/></g></g></g><g fill="#575757" fill-opacity="1"><g transform="translate(125.384713, 592.387473)"><g><path d="M 4.5625 -3.09375 L 1.65625 -3.09375 L 1.65625 -0.71875 L 5.03125 -0.71875 L 5.03125 0 L 0.78125 0 L 0.78125 -6.6875 L 4.984375 -6.6875 L 4.984375 -5.96875 L 1.65625 -5.96875 L 1.65625 -3.8125 L 4.5625 -3.8125 Z M 4.5625 -3.09375 "/></g></g></g><g fill="#575757" fill-opacity="1"><g transform="translate(132.610903, 592.387473)"><g><path d="M 1.65625 -0.71875 L 4.828125 -0.71875 L 4.828125 0 L 0.78125 0 L 0.78125 -6.6875 L 1.65625 -6.6875 Z M 1.65625 -0.71875 "/></g></g></g><g fill="#575757" fill-opacity="1"><g transform="translate(139.552409, 592.387473)"><g><path d="M 2.8125 -3.328125 L 4.5625 -6.6875 L 5.5625 -6.6875 L 3.25 -2.5 L 3.25 0 L 2.375 0 L 2.375 -2.5 L 0.0625 -6.6875 L 1.078125 -6.6875 Z M 2.8125 -3.328125 "/></g></g></g><g fill="#575757" fill-opacity="1"><g transform="translate(147.081649, 592.387473)"><g><path d="M 0.609375 1.328125 L 0.140625 1 C 0.421875 0.601562 0.566406 0.191406 0.578125 -0.234375 L 0.578125 -1 L 1.421875 -1 L 1.421875 -0.34375 C 1.421875 -0.03125 1.34375 0.273438 1.1875 0.578125 C 1.03125 0.890625 0.835938 1.140625 0.609375 1.328125 Z M 0.609375 1.328125 "/></g></g></g><g fill="#575757" fill-opacity="1"><g transform="translate(82.000004, 687.872668)"><g><path d="M 1.921875 -6.6875 L 4.09375 -1.234375 L 6.28125 -6.6875 L 7.4375 -6.6875 L 7.4375 0 L 6.546875 0 L 6.546875 -2.609375 L 6.625 -5.421875 L 4.4375 0 L 3.765625 0 L 1.578125 -5.40625 L 1.65625 -2.609375 L 1.65625 0 L 0.78125 0 L 0.78125 -6.6875 Z M 1.921875 -6.6875 "/></g></g></g><g fill="#575757" fill-opacity="1"><g transform="translate(92.091393, 687.872668)"><g><path d="M 4.46875 -1.75 L 1.671875 -1.75 L 1.03125 0 L 0.125 0 L 2.6875 -6.6875 L 3.453125 -6.6875 L 6.015625 0 L 5.109375 0 Z M 1.9375 -2.46875 L 4.203125 -2.46875 L 3.0625 -5.59375 Z M 1.9375 -2.46875 "/></g></g></g><g fill="#575757" fill-opacity="1"><g transform="translate(100.107349, 687.872668)"><g><path d="M 5.390625 -5.96875 L 3.25 -5.96875 L 3.25 0 L 2.375 0 L 2.375 -5.96875 L 0.21875 -5.96875 L 0.21875 -6.6875 L 5.390625 -6.6875 Z M 5.390625 -5.96875 "/></g></g></g><g fill="#575757" fill-opacity="1"><g transform="translate(107.599856, 687.872668)"><g><path d="M 5.390625 -5.96875 L 3.25 -5.96875 L 3.25 0 L 2.375 0 L 2.375 -5.96875 L 0.21875 -5.96875 L 0.21875 -6.6875 L 5.390625 -6.6875 Z M 5.390625 -5.96875 "/></g></g></g><g fill="#575757" fill-opacity="1"><g transform="translate(115.092362, 687.872668)"><g/></g></g><g fill="#575757" fill-opacity="1"><g transform="translate(119.301832, 687.872668)"><g><path d="M 3.234375 -2.703125 L 1.65625 -2.703125 L 1.65625 0 L 0.765625 0 L 0.765625 -6.6875 L 2.984375 -6.6875 C 3.734375 -6.6875 4.3125 -6.515625 4.71875 -6.171875 C 5.125 -5.828125 5.328125 -5.328125 5.328125 -4.671875 C 5.328125 -4.253906 5.210938 -3.890625 4.984375 -3.578125 C 4.765625 -3.273438 4.457031 -3.046875 4.0625 -2.890625 L 5.625 -0.0625 L 5.625 0 L 4.6875 0 Z M 1.65625 -3.421875 L 3.015625 -3.421875 C 3.453125 -3.421875 3.800781 -3.535156 4.0625 -3.765625 C 4.320312 -3.992188 4.453125 -4.296875 4.453125 -4.671875 C 4.453125 -5.085938 4.328125 -5.40625 4.078125 -5.625 C 3.828125 -5.84375 3.472656 -5.957031 3.015625 -5.96875 L 1.65625 -5.96875 Z M 1.65625 -3.421875 "/></g></g></g><g fill="#575757" fill-opacity="1"><g transform="translate(126.973419, 687.872668)"><g><path d="M 5.921875 -3.125 C 5.921875 -2.46875 5.8125 -1.894531 5.59375 -1.40625 C 5.375 -0.925781 5.0625 -0.554688 4.65625 -0.296875 C 4.25 -0.0351562 3.773438 0.09375 3.234375 0.09375 C 2.710938 0.09375 2.242188 -0.0351562 1.828125 -0.296875 C 1.421875 -0.554688 1.101562 -0.925781 0.875 -1.40625 C 0.65625 -1.882812 0.546875 -2.4375 0.546875 -3.0625 L 0.546875 -3.546875 C 0.546875 -4.191406 0.65625 -4.757812 0.875 -5.25 C 1.101562 -5.75 1.421875 -6.128906 1.828125 -6.390625 C 2.234375 -6.648438 2.703125 -6.78125 3.234375 -6.78125 C 3.765625 -6.78125 4.234375 -6.648438 4.640625 -6.390625 C 5.054688 -6.128906 5.375 -5.753906 5.59375 -5.265625 C 5.8125 -4.773438 5.921875 -4.203125 5.921875 -3.546875 Z M 5.046875 -3.5625 C 5.046875 -4.351562 4.882812 -4.957031 4.5625 -5.375 C 4.25 -5.800781 3.804688 -6.015625 3.234375 -6.015625 C 2.671875 -6.015625 2.226562 -5.800781 1.90625 -5.375 C 1.59375 -4.957031 1.429688 -4.375 1.421875 -3.625 L 1.421875 -3.125 C 1.421875 -2.351562 1.582031 -1.75 1.90625 -1.3125 C 2.226562 -0.875 2.671875 -0.65625 3.234375 -0.65625 C 3.804688 -0.65625 4.25 -0.863281 4.5625 -1.28125 C 4.875 -1.695312 5.035156 -2.289062 5.046875 -3.0625 Z M 5.046875 -3.5625 "/></g></g></g><g fill="#575757" fill-opacity="1"><g transform="translate(135.319975, 687.872668)"><g><path d="M 0.78125 0 L 0.78125 -6.6875 L 2.96875 -6.6875 C 3.6875 -6.6875 4.226562 -6.535156 4.59375 -6.234375 C 4.96875 -5.929688 5.15625 -5.488281 5.15625 -4.90625 C 5.15625 -4.59375 5.0625 -4.316406 4.875 -4.078125 C 4.695312 -3.835938 4.457031 -3.648438 4.15625 -3.515625 C 4.519531 -3.410156 4.804688 -3.21875 5.015625 -2.9375 C 5.222656 -2.65625 5.328125 -2.316406 5.328125 -1.921875 C 5.328125 -1.328125 5.128906 -0.859375 4.734375 -0.515625 C 4.347656 -0.171875 3.800781 0 3.09375 0 Z M 1.65625 -3.125 L 1.65625 -0.71875 L 3.109375 -0.71875 C 3.523438 -0.71875 3.847656 -0.820312 4.078125 -1.03125 C 4.316406 -1.25 4.4375 -1.546875 4.4375 -1.921875 C 4.4375 -2.722656 4 -3.125 3.125 -3.125 Z M 1.65625 -3.828125 L 2.984375 -3.828125 C 3.367188 -3.828125 3.675781 -3.921875 3.90625 -4.109375 C 4.144531 -4.304688 4.265625 -4.570312 4.265625 -4.90625 C 4.265625 -5.28125 4.15625 -5.550781 3.9375 -5.71875 C 3.726562 -5.882812 3.40625 -5.96875 2.96875 -5.96875 L 1.65625 -5.96875 Z M 1.65625 -3.828125 "/></g></g></g><g fill="#575757" fill-opacity="1"><g transform="translate(143.055845, 687.872668)"><g><path d="M 4.5625 -3.09375 L 1.65625 -3.09375 L 1.65625 -0.71875 L 5.03125 -0.71875 L 5.03125 0 L 0.78125 0 L 0.78125 -6.6875 L 4.984375 -6.6875 L 4.984375 -5.96875 L 1.65625 -5.96875 L 1.65625 -3.8125 L 4.5625 -3.8125 Z M 4.5625 -3.09375 "/></g></g></g><g fill="#575757" fill-opacity="1"><g transform="translate(150.282035, 687.872668)"><g><path d="M 3.234375 -2.703125 L 1.65625 -2.703125 L 1.65625 0 L 0.765625 0 L 0.765625 -6.6875 L 2.984375 -6.6875 C 3.734375 -6.6875 4.3125 -6.515625 4.71875 -6.171875 C 5.125 -5.828125 5.328125 -5.328125 5.328125 -4.671875 C 5.328125 -4.253906 5.210938 -3.890625 4.984375 -3.578125 C 4.765625 -3.273438 4.457031 -3.046875 4.0625 -2.890625 L 5.625 -0.0625 L 5.625 0 L 4.6875 0 Z M 1.65625 -3.421875 L 3.015625 -3.421875 C 3.453125 -3.421875 3.800781 -3.535156 4.0625 -3.765625 C 4.320312 -3.992188 4.453125 -4.296875 4.453125 -4.671875 C 4.453125 -5.085938 4.328125 -5.40625 4.078125 -5.625 C 3.828125 -5.84375 3.472656 -5.957031 3.015625 -5.96875 L 1.65625 -5.96875 Z M 1.65625 -3.421875 "/></g></g></g><g fill="#575757" fill-opacity="1"><g transform="translate(157.953622, 687.872668)"><g><path d="M 2.75 -2.984375 C 1.988281 -3.203125 1.4375 -3.46875 1.09375 -3.78125 C 0.75 -4.09375 0.578125 -4.484375 0.578125 -4.953125 C 0.578125 -5.484375 0.785156 -5.921875 1.203125 -6.265625 C 1.628906 -6.609375 2.179688 -6.78125 2.859375 -6.78125 C 3.316406 -6.78125 3.722656 -6.691406 4.078125 -6.515625 C 4.441406 -6.335938 4.722656 -6.09375 4.921875 -5.78125 C 5.117188 -5.46875 5.21875 -5.125 5.21875 -4.75 L 4.328125 -4.75 C 4.328125 -5.15625 4.195312 -5.472656 3.9375 -5.703125 C 3.6875 -5.929688 3.328125 -6.046875 2.859375 -6.046875 C 2.421875 -6.046875 2.078125 -5.953125 1.828125 -5.765625 C 1.585938 -5.578125 1.46875 -5.3125 1.46875 -4.96875 C 1.46875 -4.695312 1.582031 -4.46875 1.8125 -4.28125 C 2.039062 -4.09375 2.429688 -3.921875 2.984375 -3.765625 C 3.546875 -3.609375 3.984375 -3.4375 4.296875 -3.25 C 4.609375 -3.0625 4.84375 -2.835938 5 -2.578125 C 5.15625 -2.328125 5.234375 -2.035156 5.234375 -1.703125 C 5.234375 -1.160156 5.019531 -0.722656 4.59375 -0.390625 C 4.164062 -0.0664062 3.597656 0.09375 2.890625 0.09375 C 2.429688 0.09375 2.003906 0.00390625 1.609375 -0.171875 C 1.210938 -0.347656 0.90625 -0.585938 0.6875 -0.890625 C 0.476562 -1.203125 0.375 -1.550781 0.375 -1.9375 L 1.25 -1.9375 C 1.25 -1.53125 1.398438 -1.207031 1.703125 -0.96875 C 2.003906 -0.738281 2.398438 -0.625 2.890625 -0.625 C 3.359375 -0.625 3.71875 -0.71875 3.96875 -0.90625 C 4.21875 -1.101562 4.34375 -1.363281 4.34375 -1.6875 C 4.34375 -2.019531 4.226562 -2.273438 4 -2.453125 C 3.769531 -2.628906 3.351562 -2.804688 2.75 -2.984375 Z M 2.75 -2.984375 "/></g></g></g><g fill="#575757" fill-opacity="1"><g transform="translate(165.413992, 687.872668)"><g><path d="M 5.921875 -3.125 C 5.921875 -2.46875 5.8125 -1.894531 5.59375 -1.40625 C 5.375 -0.925781 5.0625 -0.554688 4.65625 -0.296875 C 4.25 -0.0351562 3.773438 0.09375 3.234375 0.09375 C 2.710938 0.09375 2.242188 -0.0351562 1.828125 -0.296875 C 1.421875 -0.554688 1.101562 -0.925781 0.875 -1.40625 C 0.65625 -1.882812 0.546875 -2.4375 0.546875 -3.0625 L 0.546875 -3.546875 C 0.546875 -4.191406 0.65625 -4.757812 0.875 -5.25 C 1.101562 -5.75 1.421875 -6.128906 1.828125 -6.390625 C 2.234375 -6.648438 2.703125 -6.78125 3.234375 -6.78125 C 3.765625 -6.78125 4.234375 -6.648438 4.640625 -6.390625 C 5.054688 -6.128906 5.375 -5.753906 5.59375 -5.265625 C 5.8125 -4.773438 5.921875 -4.203125 5.921875 -3.546875 Z M 5.046875 -3.5625 C 5.046875 -4.351562 4.882812 -4.957031 4.5625 -5.375 C 4.25 -5.800781 3.804688 -6.015625 3.234375 -6.015625 C 2.671875 -6.015625 2.226562 -5.800781 1.90625 -5.375 C 1.59375 -4.957031 1.429688 -4.375 1.421875 -3.625 L 1.421875 -3.125 C 1.421875 -2.351562 1.582031 -1.75 1.90625 -1.3125 C 2.226562 -0.875 2.671875 -0.65625 3.234375 -0.65625 C 3.804688 -0.65625 4.25 -0.863281 4.5625 -1.28125 C 4.875 -1.695312 5.035156 -2.289062 5.046875 -3.0625 Z M 5.046875 -3.5625 "/></g></g></g><g fill="#575757" fill-opacity="1"><g transform="translate(173.760548, 687.872668)"><g><path d="M 5.921875 0 L 5.03125 0 L 1.65625 -5.15625 L 1.65625 0 L 0.78125 0 L 0.78125 -6.6875 L 1.65625 -6.6875 L 5.03125 -1.515625 L 5.03125 -6.6875 L 5.921875 -6.6875 Z M 5.921875 0 "/></g></g></g><g fill="#575757" fill-opacity="1"><g transform="translate(70.877577, 657.064732)"><g><path d="M 16.433594 -7.007812 C 16.804688 -7.007812 17.066406 -7.113281 17.277344 -7.269531 C 17.59375 -7.480469 17.859375 -7.742188 18.066406 -8.058594 C 19.542969 -9.902344 20.542969 -12.328125 21.4375 -14.484375 C 21.753906 -15.277344 22.070312 -16.066406 22.441406 -16.855469 C 22.757812 -17.59375 23.074219 -18.382812 23.386719 -19.175781 C 23.597656 -19.648438 23.757812 -20.175781 23.914062 -20.648438 C 24.074219 -20.914062 23.757812 -21.28125 23.492188 -21.28125 C 23.335938 -21.335938 23.179688 -21.230469 23.019531 -20.964844 C 22.96875 -20.808594 22.863281 -20.648438 22.808594 -20.492188 C 22.757812 -20.332031 22.652344 -20.121094 22.597656 -19.964844 C 22.125 -18.859375 21.648438 -17.753906 21.230469 -16.644531 C 20.753906 -15.539062 20.332031 -14.433594 19.859375 -13.328125 C 19.070312 -11.695312 18.382812 -10.21875 17.382812 -8.746094 C 17.226562 -8.585938 17.121094 -8.375 17.015625 -8.164062 C 16.855469 -7.902344 16.699219 -7.796875 16.433594 -7.847656 C 16.171875 -7.902344 16.015625 -8.113281 15.960938 -8.375 C 15.910156 -8.640625 15.855469 -8.851562 15.804688 -9.113281 C 15.222656 -11.21875 15.171875 -13.328125 15.222656 -15.488281 C 15.277344 -19.753906 15.855469 -23.914062 16.699219 -28.128906 C 16.855469 -29.023438 17.066406 -29.921875 17.277344 -30.816406 C 17.488281 -31.660156 17.699219 -32.554688 17.859375 -33.449219 C 17.910156 -33.609375 17.960938 -33.820312 17.960938 -34.027344 C 17.960938 -34.238281 17.960938 -34.449219 18.015625 -34.660156 C 18.015625 -34.976562 17.859375 -35.292969 17.59375 -35.664062 C 17.488281 -35.765625 17.382812 -35.820312 17.226562 -35.820312 C 17.171875 -35.820312 17.066406 -35.765625 16.910156 -35.714844 C 15.488281 -34.714844 13.222656 -29.128906 12.640625 -27.339844 C 11.378906 -23.546875 10.535156 -19.699219 9.691406 -15.855469 L 8.902344 -12.222656 C 8.851562 -11.957031 8.796875 -11.695312 8.429688 -11.535156 C 8.375 -11.851562 8.324219 -12.167969 8.269531 -12.484375 C 8.21875 -12.746094 8.21875 -13.0625 8.164062 -13.328125 C 8.007812 -15.59375 8.21875 -17.859375 8.480469 -20.121094 C 8.851562 -23.335938 9.535156 -26.550781 10.324219 -29.710938 C 10.796875 -31.660156 11.273438 -33.554688 11.695312 -35.609375 C 11.90625 -36.453125 12.117188 -37.296875 12.117188 -38.296875 C 12.117188 -38.664062 12.117188 -38.875 11.90625 -39.246094 C 11.746094 -39.507812 11.535156 -39.613281 11.378906 -39.613281 C 11.21875 -39.613281 11.0625 -39.507812 10.902344 -39.347656 C 10.640625 -38.980469 10.429688 -38.71875 10.21875 -38.347656 C 6.636719 -32.183594 4.53125 -23.28125 3.265625 -16.277344 C 3.109375 -15.382812 2.949219 -14.539062 2.792969 -13.695312 C 2.632812 -12.851562 2.476562 -12.011719 2.265625 -11.167969 C 2.210938 -10.902344 2.160156 -10.640625 1.789062 -10.484375 C 1.582031 -10.957031 1.476562 -11.378906 1.421875 -11.851562 C 1.371094 -12.328125 1.265625 -12.800781 1.210938 -13.273438 C 0.949219 -17.648438 1.265625 -22.125 2.105469 -26.707031 C 2.582031 -29.183594 3.214844 -31.605469 4.003906 -34.082031 L 5.109375 -37.664062 C 5.269531 -38.03125 5.371094 -38.242188 5.164062 -38.613281 C 5.109375 -38.664062 5.003906 -38.769531 4.847656 -38.824219 C 4.742188 -38.824219 4.6875 -38.769531 4.6875 -38.664062 L 4.371094 -38.03125 C 2.527344 -32.921875 1 -27.761719 0.421875 -22.335938 C 0.15625 -19.648438 -0.105469 -16.910156 0.0507812 -14.222656 C 0.0507812 -13.167969 0.367188 -10.535156 1 -9.640625 C 1.265625 -9.324219 1.582031 -9.164062 1.949219 -9.164062 C 2.421875 -9.164062 2.738281 -9.375 2.949219 -9.796875 C 3.160156 -10.273438 3.320312 -10.746094 3.425781 -11.324219 C 3.582031 -12.222656 3.792969 -13.0625 3.949219 -13.960938 C 4.109375 -14.800781 4.265625 -15.644531 4.425781 -16.539062 C 5.371094 -22.546875 7.425781 -31.183594 10.378906 -36.609375 C 10.535156 -36.980469 10.640625 -37.402344 11.113281 -37.609375 C 11.167969 -37.242188 11.167969 -36.925781 11.0625 -36.664062 C 10.957031 -36.347656 10.851562 -36.03125 10.796875 -35.765625 C 10.484375 -34.449219 10.167969 -33.082031 9.851562 -31.765625 C 9.480469 -30.445312 9.164062 -29.078125 8.851562 -27.761719 C 7.847656 -23.808594 7.269531 -19.804688 7.113281 -15.75 C 7.058594 -14.589844 7.113281 -13.378906 7.269531 -12.167969 C 7.269531 -11.113281 7.636719 -10.113281 8.851562 -10.113281 C 9.164062 -10.167969 9.375 -10.378906 9.535156 -10.746094 C 9.640625 -11.113281 9.746094 -11.429688 9.851562 -11.746094 C 9.957031 -12.0625 10.0625 -12.378906 10.113281 -12.746094 C 10.273438 -13.589844 10.484375 -14.433594 10.640625 -15.277344 C 10.796875 -16.066406 10.957031 -16.910156 11.113281 -17.753906 C 12.328125 -23.019531 13.539062 -28.601562 16.222656 -33.292969 C 16.433594 -33.660156 16.59375 -34.027344 16.960938 -34.238281 C 17.015625 -34.082031 17.066406 -34.027344 17.066406 -33.976562 C 17.066406 -33.820312 17.015625 -33.554688 16.960938 -33.292969 C 16.066406 -29.761719 15.277344 -26.445312 14.800781 -22.863281 C 14.328125 -19.699219 14.011719 -16.644531 14.171875 -13.484375 C 14.222656 -11.640625 14.378906 -9.480469 15.171875 -7.796875 C 15.433594 -7.269531 15.855469 -7.007812 16.433594 -7.007812 Z M 16.433594 -7.007812 "/></g></g></g><g fill="#575757" fill-opacity="1"><g transform="translate(93.58013, 657.064732)"><g><path d="M 4.953125 -12.167969 C 5.109375 -12.167969 5.320312 -12.222656 5.53125 -12.328125 C 6.003906 -12.535156 6.425781 -12.851562 6.796875 -13.222656 C 7.058594 -13.484375 7.320312 -13.800781 7.585938 -14.066406 C 7.847656 -14.328125 8.113281 -14.589844 8.375 -14.855469 C 9.164062 -15.75 9.957031 -16.644531 10.640625 -17.59375 C 11.324219 -18.542969 12.011719 -19.492188 12.695312 -20.386719 C 12.800781 -20.542969 12.851562 -20.648438 12.90625 -20.808594 C 12.957031 -20.964844 12.957031 -21.125 12.800781 -21.28125 C 12.746094 -21.335938 12.695312 -21.335938 12.640625 -21.335938 C 12.535156 -21.335938 12.433594 -21.28125 12.378906 -21.230469 L 10.957031 -19.492188 C 10.378906 -18.753906 9.851562 -18.015625 9.324219 -17.332031 C 8.746094 -16.59375 8.164062 -15.910156 7.585938 -15.222656 C 7.269531 -14.800781 5.214844 -12.851562 4.847656 -12.851562 C 4.742188 -12.851562 4.6875 -12.851562 4.636719 -12.90625 C 4.214844 -13.0625 4.265625 -13.484375 4.265625 -13.855469 C 4.214844 -14.90625 4.371094 -15.960938 4.582031 -17.015625 C 5.058594 -19.492188 5.953125 -21.753906 7.058594 -24.019531 C 7.214844 -24.335938 7.425781 -24.652344 7.585938 -24.96875 C 7.742188 -25.285156 7.953125 -25.601562 8.113281 -25.96875 C 8.269531 -26.339844 8.324219 -26.65625 8.164062 -26.917969 C 8.113281 -27.128906 7.847656 -27.234375 7.691406 -27.234375 C 7.585938 -27.234375 7.53125 -27.234375 7.480469 -27.179688 C 7.113281 -26.917969 6.847656 -26.707031 6.585938 -26.339844 C 6.320312 -25.96875 6.058594 -25.652344 5.792969 -25.335938 C 5.53125 -24.96875 5.214844 -24.652344 4.953125 -24.285156 C 4.742188 -24.074219 4.582031 -23.96875 4.425781 -23.96875 L 4.214844 -24.019531 C 4.109375 -24.074219 3.949219 -24.074219 3.738281 -24.074219 C 2.105469 -24.074219 0.632812 -21.597656 0.15625 -20.175781 C 0 -19.804688 0 -19.4375 0.0507812 -18.964844 C 0.105469 -18.4375 0.421875 -18.171875 0.894531 -18.171875 C 1.105469 -18.171875 1.316406 -18.226562 1.476562 -18.382812 C 1.738281 -18.648438 2 -18.910156 2.265625 -19.226562 C 2.527344 -19.542969 2.738281 -19.859375 3.003906 -20.175781 C 3.425781 -20.753906 3.84375 -21.28125 4.265625 -21.859375 C 4.636719 -22.441406 5.058594 -22.96875 5.476562 -23.546875 C 5.582031 -23.808594 5.742188 -23.96875 5.953125 -24.125 C 6.003906 -24.179688 6.058594 -24.230469 6.109375 -24.230469 C 6.164062 -24.230469 6.214844 -24.179688 6.375 -24.125 C 5.425781 -23.492188 4.160156 -18.59375 3.898438 -17.488281 C 3.632812 -16.382812 3.476562 -15.277344 3.53125 -14.171875 C 3.582031 -13.960938 3.582031 -13.75 3.632812 -13.539062 C 3.632812 -13.328125 3.6875 -13.117188 3.792969 -12.957031 C 4.054688 -12.433594 4.425781 -12.167969 4.953125 -12.167969 Z M 1 -19.28125 C 0.949219 -19.332031 0.894531 -19.4375 0.84375 -19.492188 L 0.894531 -19.699219 C 1.265625 -21.175781 2.265625 -22.597656 3.6875 -23.28125 C 3.792969 -23.335938 3.898438 -23.28125 3.949219 -23.230469 C 3.949219 -23.074219 3.949219 -23.019531 3.949219 -23.019531 L 3.003906 -21.597656 C 2.421875 -20.914062 1.894531 -20.175781 1.316406 -19.492188 C 1.265625 -19.4375 1.265625 -19.386719 1.210938 -19.386719 C 1.160156 -19.386719 1.054688 -19.332031 1 -19.28125 Z M 1 -19.28125 "/></g></g></g><g fill="#575757" fill-opacity="1"><g transform="translate(105.273785, 657.064732)"><g><path d="M 1.316406 -0.894531 C 1.949219 -0.894531 2.265625 -1.210938 2.265625 -1.84375 C 2.265625 -2.054688 2.160156 -2.210938 2 -2.265625 C 1.949219 -2.265625 1.949219 -2.265625 1.949219 -2.316406 C 1.894531 -2.316406 1.894531 -2.316406 1.84375 -2.316406 C 1.738281 -2.316406 1.632812 -2.265625 1.582031 -2.160156 C 1.527344 -2.105469 1.476562 -2 1.421875 -1.894531 C 1.371094 -1.789062 1.316406 -1.738281 1.160156 -1.738281 C 0.472656 -2.421875 0.0507812 -6.375 0.0507812 -7.375 C -0.105469 -10.902344 0 -14.328125 0.578125 -17.859375 C 0.789062 -18.648438 1.054688 -19.386719 1.421875 -20.175781 C 2.105469 -21.648438 2.792969 -23.074219 3.53125 -24.496094 C 4.214844 -25.917969 4.953125 -27.339844 5.6875 -28.8125 C 5.847656 -29.183594 6.109375 -29.339844 6.425781 -29.339844 C 6.480469 -29.339844 6.53125 -29.339844 6.585938 -29.339844 C 6.585938 -29.289062 6.636719 -29.289062 6.691406 -29.289062 C 8.851562 -28.917969 11.90625 -28.601562 14.171875 -28.601562 C 15.855469 -28.601562 17.59375 -28.761719 19.121094 -29.550781 C 19.492188 -29.710938 19.542969 -30.132812 19.332031 -30.5 C 19.28125 -30.605469 19.226562 -30.65625 19.121094 -30.65625 C 19.070312 -30.65625 19.015625 -30.605469 18.964844 -30.550781 C 18.910156 -30.5 18.804688 -30.445312 18.753906 -30.394531 C 18.59375 -30.34375 18.382812 -30.289062 18.226562 -30.238281 C 18.066406 -30.183594 17.859375 -30.078125 17.699219 -30.027344 C 16.488281 -29.761719 15.277344 -29.605469 14.117188 -29.605469 C 13.960938 -29.605469 13.75 -29.605469 13.589844 -29.605469 C 13.378906 -29.605469 13.167969 -29.605469 13.011719 -29.65625 C 12.222656 -29.710938 11.484375 -29.816406 10.746094 -29.867188 C 9.957031 -29.921875 9.21875 -29.972656 8.480469 -30.027344 C 8.324219 -30.078125 8.164062 -30.078125 8.007812 -30.078125 C 7.847656 -30.078125 7.636719 -30.132812 7.480469 -30.183594 C 7.320312 -30.238281 7.164062 -30.238281 7.007812 -30.238281 C 6.847656 -30.238281 6.742188 -30.289062 6.585938 -30.445312 C 6.636719 -30.65625 6.691406 -30.867188 6.796875 -31.027344 C 6.847656 -31.183594 6.953125 -31.34375 7.007812 -31.5 C 7.691406 -33.132812 8.324219 -34.660156 8.902344 -36.347656 C 8.953125 -36.609375 9.058594 -36.925781 9.164062 -37.242188 C 9.21875 -37.507812 9.269531 -37.820312 9.269531 -38.136719 C 9.324219 -38.507812 9.269531 -38.875 9.113281 -39.191406 C 9.007812 -39.507812 8.796875 -39.664062 8.480469 -39.664062 C 6.691406 -39.664062 3.949219 -33.660156 3.214844 -31.660156 C 2.949219 -31.027344 2.84375 -30.816406 2.421875 -30.816406 C 2.210938 -30.816406 2 -30.816406 1.84375 -30.867188 C 0.210938 -31.132812 -1.316406 -31.289062 -2.792969 -31.289062 C -5.425781 -31.289062 -10.378906 -30.867188 -12.535156 -29.394531 C -12.800781 -29.234375 -12.851562 -29.023438 -12.746094 -28.761719 C -12.695312 -28.394531 -12.484375 -28.234375 -12.011719 -28.234375 C -11.746094 -28.234375 -11.589844 -28.339844 -11.535156 -28.550781 C -11.378906 -30.238281 -3.582031 -30.34375 -2.84375 -30.34375 C -2 -30.34375 1.789062 -30.238281 2.316406 -29.710938 C 2.476562 -29.445312 2.371094 -29.234375 2.210938 -28.972656 C 0.789062 -24.125 -0.210938 -19.648438 -0.683594 -14.589844 C -0.894531 -11.429688 -1 -8.375 -0.632812 -5.214844 C -0.472656 -4.214844 -0.316406 -3.425781 -0.0507812 -2.421875 C 0.105469 -1.949219 0.210938 -1.527344 0.632812 -1.160156 C 0.789062 -1 1.054688 -0.894531 1.316406 -0.894531 Z M 1.527344 -22.757812 C 1.527344 -22.757812 1.527344 -22.808594 1.476562 -22.863281 C 1.476562 -23.597656 2.527344 -27.65625 3.003906 -28.707031 C 3.054688 -28.761719 3.054688 -28.867188 3.109375 -28.972656 C 3.160156 -29.078125 3.160156 -29.183594 3.214844 -29.289062 C 3.320312 -29.550781 3.53125 -29.65625 3.792969 -29.65625 L 4.742188 -29.5 C 4.792969 -29.5 4.847656 -29.5 4.847656 -29.445312 C 4.847656 -29.394531 4.847656 -29.394531 4.898438 -29.339844 L 4.898438 -29.128906 L 2.054688 -23.335938 L 1.738281 -22.808594 C 1.6875 -22.757812 1.632812 -22.757812 1.527344 -22.757812 Z M 5.058594 -30.5 C 4.6875 -30.5 4.476562 -30.5 4.371094 -30.550781 C 3.949219 -30.605469 3.792969 -30.816406 3.949219 -31.238281 C 4.742188 -33.292969 5.582031 -35.1875 6.902344 -37.03125 C 7.269531 -37.609375 7.691406 -38.191406 8.269531 -38.613281 C 8.429688 -38.613281 8.480469 -38.613281 8.480469 -38.613281 C 8.535156 -38.613281 8.585938 -38.558594 8.585938 -38.453125 C 8.535156 -38.296875 8.535156 -38.085938 8.535156 -37.925781 C 8.535156 -37.714844 8.480469 -37.507812 8.429688 -37.347656 C 7.742188 -35.1875 6.902344 -33.132812 5.898438 -31.078125 C 5.742188 -30.710938 5.425781 -30.5 5.058594 -30.5 Z M 5.058594 -30.5 "/></g></g></g><g fill="#575757" fill-opacity="1"><g transform="translate(109.751084, 657.064732)"><g><path d="M 1.316406 -0.894531 C 1.949219 -0.894531 2.265625 -1.210938 2.265625 -1.84375 C 2.265625 -2.054688 2.160156 -2.210938 2 -2.265625 C 1.949219 -2.265625 1.949219 -2.265625 1.949219 -2.316406 C 1.894531 -2.316406 1.894531 -2.316406 1.84375 -2.316406 C 1.738281 -2.316406 1.632812 -2.265625 1.582031 -2.160156 C 1.527344 -2.105469 1.476562 -2 1.421875 -1.894531 C 1.371094 -1.789062 1.316406 -1.738281 1.160156 -1.738281 C 0.472656 -2.421875 0.0507812 -6.375 0.0507812 -7.375 C -0.105469 -10.902344 0 -14.328125 0.578125 -17.859375 C 0.789062 -18.648438 1.054688 -19.386719 1.421875 -20.175781 C 2.105469 -21.648438 2.792969 -23.074219 3.53125 -24.496094 C 4.214844 -25.917969 4.953125 -27.339844 5.6875 -28.8125 C 5.847656 -29.183594 6.109375 -29.339844 6.425781 -29.339844 C 6.480469 -29.339844 6.53125 -29.339844 6.585938 -29.339844 C 6.585938 -29.289062 6.636719 -29.289062 6.691406 -29.289062 C 8.851562 -28.917969 11.90625 -28.601562 14.171875 -28.601562 C 15.855469 -28.601562 17.59375 -28.761719 19.121094 -29.550781 C 19.492188 -29.710938 19.542969 -30.132812 19.332031 -30.5 C 19.28125 -30.605469 19.226562 -30.65625 19.121094 -30.65625 C 19.070312 -30.65625 19.015625 -30.605469 18.964844 -30.550781 C 18.910156 -30.5 18.804688 -30.445312 18.753906 -30.394531 C 18.59375 -30.34375 18.382812 -30.289062 18.226562 -30.238281 C 18.066406 -30.183594 17.859375 -30.078125 17.699219 -30.027344 C 16.488281 -29.761719 15.277344 -29.605469 14.117188 -29.605469 C 13.960938 -29.605469 13.75 -29.605469 13.589844 -29.605469 C 13.378906 -29.605469 13.167969 -29.605469 13.011719 -29.65625 C 12.222656 -29.710938 11.484375 -29.816406 10.746094 -29.867188 C 9.957031 -29.921875 9.21875 -29.972656 8.480469 -30.027344 C 8.324219 -30.078125 8.164062 -30.078125 8.007812 -30.078125 C 7.847656 -30.078125 7.636719 -30.132812 7.480469 -30.183594 C 7.320312 -30.238281 7.164062 -30.238281 7.007812 -30.238281 C 6.847656 -30.238281 6.742188 -30.289062 6.585938 -30.445312 C 6.636719 -30.65625 6.691406 -30.867188 6.796875 -31.027344 C 6.847656 -31.183594 6.953125 -31.34375 7.007812 -31.5 C 7.691406 -33.132812 8.324219 -34.660156 8.902344 -36.347656 C 8.953125 -36.609375 9.058594 -36.925781 9.164062 -37.242188 C 9.21875 -37.507812 9.269531 -37.820312 9.269531 -38.136719 C 9.324219 -38.507812 9.269531 -38.875 9.113281 -39.191406 C 9.007812 -39.507812 8.796875 -39.664062 8.480469 -39.664062 C 6.691406 -39.664062 3.949219 -33.660156 3.214844 -31.660156 C 2.949219 -31.027344 2.84375 -30.816406 2.421875 -30.816406 C 2.210938 -30.816406 2 -30.816406 1.84375 -30.867188 C 0.210938 -31.132812 -1.316406 -31.289062 -2.792969 -31.289062 C -5.425781 -31.289062 -10.378906 -30.867188 -12.535156 -29.394531 C -12.800781 -29.234375 -12.851562 -29.023438 -12.746094 -28.761719 C -12.695312 -28.394531 -12.484375 -28.234375 -12.011719 -28.234375 C -11.746094 -28.234375 -11.589844 -28.339844 -11.535156 -28.550781 C -11.378906 -30.238281 -3.582031 -30.34375 -2.84375 -30.34375 C -2 -30.34375 1.789062 -30.238281 2.316406 -29.710938 C 2.476562 -29.445312 2.371094 -29.234375 2.210938 -28.972656 C 0.789062 -24.125 -0.210938 -19.648438 -0.683594 -14.589844 C -0.894531 -11.429688 -1 -8.375 -0.632812 -5.214844 C -0.472656 -4.214844 -0.316406 -3.425781 -0.0507812 -2.421875 C 0.105469 -1.949219 0.210938 -1.527344 0.632812 -1.160156 C 0.789062 -1 1.054688 -0.894531 1.316406 -0.894531 Z M 1.527344 -22.757812 C 1.527344 -22.757812 1.527344 -22.808594 1.476562 -22.863281 C 1.476562 -23.597656 2.527344 -27.65625 3.003906 -28.707031 C 3.054688 -28.761719 3.054688 -28.867188 3.109375 -28.972656 C 3.160156 -29.078125 3.160156 -29.183594 3.214844 -29.289062 C 3.320312 -29.550781 3.53125 -29.65625 3.792969 -29.65625 L 4.742188 -29.5 C 4.792969 -29.5 4.847656 -29.5 4.847656 -29.445312 C 4.847656 -29.394531 4.847656 -29.394531 4.898438 -29.339844 L 4.898438 -29.128906 L 2.054688 -23.335938 L 1.738281 -22.808594 C 1.6875 -22.757812 1.632812 -22.757812 1.527344 -22.757812 Z M 5.058594 -30.5 C 4.6875 -30.5 4.476562 -30.5 4.371094 -30.550781 C 3.949219 -30.605469 3.792969 -30.816406 3.949219 -31.238281 C 4.742188 -33.292969 5.582031 -35.1875 6.902344 -37.03125 C 7.269531 -37.609375 7.691406 -38.191406 8.269531 -38.613281 C 8.429688 -38.613281 8.480469 -38.613281 8.480469 -38.613281 C 8.535156 -38.613281 8.585938 -38.558594 8.585938 -38.453125 C 8.535156 -38.296875 8.535156 -38.085938 8.535156 -37.925781 C 8.535156 -37.714844 8.480469 -37.507812 8.429688 -37.347656 C 7.742188 -35.1875 6.902344 -33.132812 5.898438 -31.078125 C 5.742188 -30.710938 5.425781 -30.5 5.058594 -30.5 Z M 5.058594 -30.5 "/></g></g></g><g fill="#575757" fill-opacity="1"><g transform="translate(114.228384, 657.064732)"><g/></g></g><g fill="#575757" fill-opacity="1"><g transform="translate(127.396916, 657.064732)"><g><path d="M 6.847656 -2.84375 C 6.902344 -2.84375 6.953125 -2.84375 7.007812 -2.898438 C 7.007812 -2.898438 7.058594 -2.898438 7.113281 -2.898438 C 7.425781 -2.949219 7.636719 -3.160156 7.742188 -3.425781 C 7.902344 -3.898438 7.953125 -4.265625 8.007812 -4.636719 C 8.058594 -5.214844 8.113281 -5.847656 8.164062 -6.480469 C 8.164062 -7.113281 8.21875 -7.742188 8.269531 -8.324219 L 8.585938 -11.535156 C 8.640625 -11.90625 8.746094 -12.117188 8.953125 -12.117188 C 9.113281 -12.117188 9.269531 -12.117188 9.375 -12.0625 C 9.746094 -11.90625 10.007812 -11.851562 10.167969 -11.800781 C 11.640625 -11.378906 13.117188 -10.957031 14.644531 -10.957031 C 20.332031 -10.957031 24.917969 -15.488281 27.917969 -20.175781 L 28.078125 -20.492188 L 28.128906 -20.859375 C 28.078125 -21.125 27.972656 -21.335938 27.8125 -21.386719 C 27.761719 -21.386719 27.761719 -21.386719 27.707031 -21.4375 C 27.65625 -21.4375 27.601562 -21.386719 27.550781 -21.335938 C 27.496094 -21.230469 27.445312 -21.125 27.390625 -21.070312 C 24.863281 -16.539062 19.597656 -11.695312 14.222656 -11.695312 L 13.644531 -11.695312 C 12.167969 -11.851562 10.746094 -12.222656 9.324219 -12.695312 C 8.851562 -12.851562 8.691406 -12.957031 8.851562 -13.539062 C 9.007812 -14.484375 9.21875 -15.433594 9.375 -16.382812 C 9.535156 -17.332031 9.691406 -18.277344 9.957031 -19.226562 C 10.0625 -19.699219 10.324219 -20.121094 10.746094 -20.386719 C 12.011719 -21.28125 13.75 -22.808594 15.59375 -24.707031 C 16.488281 -25.601562 17.4375 -26.601562 18.332031 -27.65625 C 20.121094 -29.710938 21.597656 -31.871094 22.492188 -33.820312 C 22.96875 -34.820312 23.179688 -35.714844 23.230469 -36.558594 C 23.28125 -37.980469 22.492188 -39.140625 21.070312 -39.140625 C 19.175781 -39.140625 17.382812 -37.769531 15.855469 -35.714844 C 15.066406 -34.660156 14.378906 -33.503906 13.75 -32.183594 C 12.433594 -29.605469 11.324219 -26.863281 10.535156 -24.496094 C 10.167969 -23.28125 9.851562 -22.28125 9.585938 -21.386719 C 9.429688 -20.753906 9.113281 -20.332031 8.585938 -20.070312 L 6.847656 -19.070312 C 6.742188 -19.015625 6.53125 -18.910156 6.269531 -18.859375 C 6.109375 -18.859375 6.003906 -18.910156 6.003906 -19.015625 L 6.003906 -19.910156 C 6.214844 -22.019531 6.53125 -24.125 6.902344 -26.234375 C 7.164062 -27.550781 7.375 -28.867188 7.636719 -30.183594 C 7.902344 -31.5 8.113281 -32.816406 8.375 -34.132812 C 8.429688 -34.398438 8.480469 -34.714844 8.480469 -35.03125 C 8.480469 -35.292969 8.480469 -35.609375 8.535156 -35.871094 C 8.535156 -36.136719 8.429688 -36.347656 8.269531 -36.398438 C 8.21875 -36.453125 8.164062 -36.453125 8.058594 -36.453125 C 8.007812 -36.453125 7.953125 -36.398438 7.847656 -36.292969 C 7.796875 -36.03125 7.796875 -35.765625 7.847656 -35.503906 C 7.847656 -35.242188 7.796875 -34.976562 7.742188 -34.714844 C 7.480469 -33.503906 7.214844 -32.238281 6.953125 -30.972656 C 6.691406 -29.710938 6.480469 -28.445312 6.214844 -27.234375 C 5.792969 -24.917969 5.371094 -22.597656 5.109375 -20.226562 C 4.847656 -17.804688 5.214844 -18.226562 2.792969 -17.542969 C 2.371094 -17.4375 1.949219 -17.332031 1.527344 -17.277344 C 1.054688 -17.226562 0.632812 -17.121094 0.210938 -17.066406 C 0.0507812 -17.066406 -0.0507812 -17.015625 0 -16.855469 C 0 -16.699219 0.0507812 -16.59375 0.15625 -16.539062 C 0.421875 -16.328125 0.738281 -16.171875 1.105469 -16.015625 L 4.160156 -14.433594 C 4.53125 -14.277344 4.6875 -14.011719 4.6875 -13.644531 C 4.6875 -11.535156 5.003906 -4.742188 6.269531 -3.214844 C 6.425781 -2.949219 6.585938 -2.84375 6.847656 -2.84375 Z M 6.796875 -4.6875 C 6.691406 -4.6875 6.636719 -4.742188 6.636719 -4.847656 C 6.585938 -4.898438 6.585938 -5.003906 6.585938 -5.109375 C 6.53125 -5.164062 6.53125 -5.269531 6.480469 -5.320312 C 6.058594 -7.164062 5.898438 -8.953125 5.742188 -10.796875 C 5.742188 -11.167969 5.742188 -11.589844 5.742188 -11.957031 C 5.6875 -12.328125 5.6875 -12.746094 5.6875 -13.117188 C 5.6875 -13.378906 5.847656 -13.484375 6.109375 -13.433594 C 6.164062 -13.378906 6.269531 -13.378906 6.375 -13.328125 C 6.425781 -13.273438 6.53125 -13.273438 6.585938 -13.222656 C 7.796875 -12.746094 7.742188 -12.695312 7.585938 -11.429688 L 7.113281 -5.425781 C 7.058594 -5.320312 7.058594 -5.214844 7.058594 -5.109375 C 7.058594 -5.003906 7.058594 -4.898438 7.007812 -4.847656 C 6.902344 -4.742188 6.847656 -4.6875 6.796875 -4.6875 Z M 4.425781 -14.90625 C 4.054688 -14.90625 2.371094 -15.960938 1.949219 -16.171875 C 1.894531 -16.171875 1.84375 -16.222656 1.84375 -16.328125 C 1.84375 -16.488281 1.894531 -16.539062 2.054688 -16.59375 C 2.84375 -16.75 3.53125 -16.910156 4.320312 -17.121094 C 4.742188 -17.121094 4.792969 -17.066406 4.792969 -16.644531 L 4.792969 -16.488281 C 4.792969 -16.117188 4.792969 -15.910156 4.742188 -15.804688 C 4.6875 -15.222656 4.582031 -14.90625 4.425781 -14.90625 Z M 7.53125 -13.378906 C 6.953125 -13.539062 6.375 -13.800781 5.898438 -14.171875 C 5.742188 -14.328125 5.6875 -14.433594 5.6875 -14.589844 C 5.6875 -15.488281 5.742188 -16.328125 5.792969 -17.171875 C 5.792969 -17.4375 5.898438 -17.59375 6.058594 -17.699219 L 6.425781 -17.859375 C 7.214844 -18.277344 7.902344 -18.59375 8.691406 -18.964844 C 8.796875 -18.910156 8.851562 -18.804688 8.851562 -18.753906 C 8.851562 -18.648438 8.851562 -18.542969 8.851562 -18.488281 C 8.691406 -17.699219 8.535156 -16.960938 8.429688 -16.222656 C 8.269531 -15.433594 8.113281 -14.695312 7.953125 -13.90625 C 7.953125 -13.800781 7.902344 -13.695312 7.847656 -13.539062 C 7.742188 -13.433594 7.636719 -13.378906 7.53125 -13.378906 Z M 10.851562 -21.753906 C 10.695312 -21.914062 10.695312 -22.070312 10.746094 -22.230469 C 12.378906 -27.285156 15.328125 -36.875 20.808594 -38.296875 C 21.070312 -38.347656 21.28125 -38.402344 21.4375 -38.402344 C 21.914062 -38.402344 22.441406 -38.191406 22.492188 -37.609375 C 22.597656 -37.03125 22.546875 -36.347656 22.28125 -35.664062 C 21.019531 -31.765625 14.960938 -24.917969 11.484375 -22.125 C 11.378906 -22.070312 11.273438 -21.964844 11.21875 -21.914062 C 11.113281 -21.808594 11.007812 -21.753906 10.851562 -21.753906 Z M 10.851562 -21.753906 "/></g></g></g><g fill="#575757" fill-opacity="1"><g transform="translate(154.313392, 657.064732)"><g><path d="M 0.105469 -13.378906 C 0.316406 -13.378906 0.527344 -13.484375 0.683594 -13.644531 C 1.84375 -14.539062 3.214844 -18.015625 3.632812 -19.4375 C 3.738281 -19.859375 3.949219 -20.070312 4.214844 -20.070312 C 4.320312 -20.070312 4.425781 -20.070312 4.53125 -20.015625 C 6.003906 -20.015625 7.320312 -20.121094 8.746094 -20.703125 C 9.007812 -20.753906 9.058594 -20.914062 8.953125 -21.175781 C 8.902344 -21.335938 8.746094 -21.4375 8.480469 -21.4375 C 8.21875 -21.386719 8.007812 -21.28125 7.847656 -21.230469 C 6.953125 -20.859375 5.953125 -20.753906 4.953125 -20.703125 L 4.636719 -20.703125 C 4.160156 -20.703125 4.109375 -20.808594 4.054688 -21.4375 C 4.003906 -21.859375 3.898438 -22.230469 3.6875 -22.492188 C 3.53125 -22.757812 3.371094 -22.863281 3.214844 -22.808594 C 2.898438 -22.757812 2.582031 -22.703125 2.265625 -22.652344 C 1.949219 -22.597656 1.6875 -22.441406 1.421875 -22.175781 C -0.0507812 -20.332031 -1 -18.226562 -1.265625 -15.910156 C -1.316406 -15.382812 -1.265625 -14.90625 -1.105469 -14.433594 C -1 -14.066406 -0.789062 -13.800781 -0.421875 -13.589844 C -0.210938 -13.433594 -0.0507812 -13.378906 0.105469 -13.378906 Z M -0.261719 -14.328125 C -0.632812 -14.75 -0.472656 -15.277344 -0.421875 -15.75 C -0.210938 -17.753906 0.527344 -19.597656 1.84375 -21.28125 C 1.894531 -21.335938 1.949219 -21.4375 2.105469 -21.492188 C 2.160156 -21.492188 2.265625 -21.4375 2.316406 -21.386719 C 3.109375 -20.597656 3.160156 -20.492188 2.792969 -19.4375 C 2.476562 -18.4375 0.789062 -14.328125 -0.261719 -14.328125 Z M 3.214844 -21.28125 C 2.949219 -21.28125 2.898438 -21.386719 2.949219 -21.648438 C 3.003906 -21.808594 3.109375 -21.914062 3.214844 -21.859375 C 3.265625 -21.859375 3.320312 -21.753906 3.320312 -21.597656 C 3.320312 -21.4375 3.265625 -21.335938 3.214844 -21.28125 Z M 3.214844 -21.28125 "/></g></g></g><g fill="#575757" fill-opacity="1"><g transform="translate(162.109159, 657.064732)"><g><path d="M -0.738281 -0.683594 C -0.367188 -0.683594 -0.210938 -0.683594 -0.15625 -1.054688 L 0 -1.738281 C 0.367188 -4.265625 0.738281 -6.691406 1.371094 -9.164062 C 1.421875 -9.375 1.582031 -9.429688 1.789062 -9.375 C 1.949219 -9.21875 2.105469 -9.164062 2.316406 -9.164062 C 2.6875 -9.164062 2.898438 -9.429688 3.160156 -9.691406 C 3.320312 -9.796875 3.425781 -9.902344 3.53125 -10.0625 C 3.632812 -10.167969 3.738281 -10.273438 3.898438 -10.378906 C 4.953125 -11.589844 5.898438 -12.800781 6.796875 -14.066406 C 7.164062 -14.644531 7.585938 -15.222656 8.164062 -15.644531 C 10.851562 -17.488281 13.484375 -19.28125 16.488281 -20.542969 L 16.804688 -20.703125 C 16.910156 -20.753906 16.910156 -20.859375 16.855469 -21.019531 C 16.75 -21.28125 16.59375 -21.4375 16.328125 -21.386719 C 16.171875 -21.335938 16.015625 -21.28125 15.855469 -21.230469 C 15.699219 -21.175781 15.59375 -21.070312 15.433594 -21.019531 C 13.539062 -20.175781 11.746094 -19.070312 10.0625 -17.960938 C 9.902344 -17.859375 9.746094 -17.753906 9.585938 -17.648438 C 9.429688 -17.488281 9.269531 -17.4375 9.007812 -17.488281 C 9.058594 -17.859375 9.21875 -18.121094 9.375 -18.382812 C 9.535156 -18.648438 9.640625 -18.910156 9.796875 -19.175781 C 10.429688 -20.386719 10.957031 -21.597656 11.429688 -22.808594 C 11.589844 -23.386719 11.695312 -23.914062 11.640625 -24.496094 C 11.484375 -25.335938 10.957031 -25.757812 10.273438 -25.757812 C 7.53125 -25.757812 4.371094 -20.28125 3.320312 -17.859375 C 1.789062 -14.433594 0.84375 -10.851562 0.0507812 -7.214844 C -0.0507812 -6.742188 -0.15625 -6.214844 -0.261719 -5.742188 C -0.316406 -5.214844 -0.421875 -4.636719 -0.578125 -4.054688 C -0.949219 -4.425781 -0.894531 -4.6875 -0.894531 -4.953125 C -0.894531 -8.113281 -0.789062 -11.273438 -0.210938 -14.433594 C 0.527344 -18.59375 0.210938 -17.910156 2.421875 -21.386719 C 5.371094 -26.074219 8.269531 -30.816406 10.746094 -35.820312 C 10.796875 -35.976562 10.902344 -36.1875 10.957031 -36.398438 C 11.007812 -36.609375 11.0625 -36.820312 11.113281 -37.03125 C 11.167969 -37.507812 11.0625 -37.875 10.695312 -38.136719 C 10.535156 -38.242188 10.429688 -38.296875 10.273438 -38.296875 C 8.585938 -38.296875 5.476562 -33.292969 4.6875 -31.871094 C 0.421875 -23.914062 -1.582031 -15.433594 -1.789062 -6.375 C -1.789062 -5.425781 -1.6875 -1.632812 -1.105469 -0.894531 C -1 -0.738281 -0.894531 -0.683594 -0.738281 -0.683594 Z M 2 -10.957031 C 1.789062 -11.167969 1.894531 -11.324219 1.949219 -11.535156 C 3.109375 -15.488281 5.898438 -23.28125 9.851562 -24.917969 C 10.21875 -25.074219 10.429688 -25.125 10.535156 -25.125 C 10.902344 -25.125 11.0625 -24.757812 10.957031 -24.074219 C 10.796875 -23.652344 10.695312 -23.230469 10.535156 -22.808594 C 9.535156 -20.332031 8.324219 -18.171875 6.902344 -15.910156 C 6.742188 -15.699219 6.585938 -15.488281 6.320312 -15.277344 C 4.792969 -14.011719 3.476562 -12.640625 2.265625 -11.167969 C 2.210938 -11.113281 2.160156 -11.007812 2 -10.957031 Z M 1.582031 -21.859375 C 1.527344 -21.964844 1.527344 -22.125 1.582031 -22.335938 C 3.109375 -26.96875 5.269531 -32.449219 8.640625 -36.082031 C 9.058594 -36.558594 9.480469 -36.925781 10.0625 -37.296875 L 10.273438 -37.296875 C 10.378906 -37.242188 10.378906 -37.136719 10.324219 -37.085938 C 9.640625 -35.292969 8.796875 -33.554688 7.796875 -31.871094 C 6.902344 -30.289062 5.953125 -28.761719 5.058594 -27.234375 C 4.109375 -25.707031 3.160156 -24.179688 2.265625 -22.652344 C 2.105469 -22.28125 2 -22.019531 1.582031 -21.859375 Z M 1.582031 -21.859375 "/></g></g></g><g fill="#575757" fill-opacity="1"><g transform="translate(177.806047, 657.064732)"><g><path d="M 2.476562 -14.277344 C 2.738281 -14.277344 2.949219 -14.328125 3.214844 -14.433594 C 5.847656 -15.328125 7.691406 -18.121094 9.007812 -20.4375 C 9.164062 -20.648438 9.21875 -20.859375 9.164062 -21.019531 C 9.164062 -21.230469 9.113281 -21.335938 8.953125 -21.386719 C 8.902344 -21.4375 8.851562 -21.4375 8.796875 -21.4375 C 8.691406 -21.4375 8.585938 -21.386719 8.535156 -21.230469 L 7.953125 -20.28125 C 6.902344 -18.332031 4.792969 -15.910156 2.738281 -15.222656 C 2.476562 -15.171875 2.265625 -15.117188 2.210938 -15.117188 C 1.476562 -15.117188 1 -15.539062 0.738281 -16.328125 C 0.683594 -16.488281 0.683594 -16.644531 0.683594 -16.804688 C 0.683594 -16.960938 0.683594 -17.121094 0.632812 -17.277344 C 0.632812 -18.277344 1 -20.28125 1.632812 -21.070312 C 1.738281 -20.914062 1.84375 -20.753906 1.949219 -20.597656 C 2 -20.4375 2.105469 -20.28125 2.210938 -20.121094 C 2.316406 -19.910156 2.476562 -19.804688 2.738281 -19.804688 C 2.84375 -19.804688 2.949219 -19.804688 3.003906 -19.859375 C 3.84375 -20.226562 4.898438 -21.542969 4.953125 -22.546875 C 5.003906 -23.441406 4.476562 -24.074219 3.6875 -24.074219 C 1.371094 -24.074219 -0.105469 -19.910156 -0.105469 -17.804688 C -0.15625 -16.488281 0.316406 -15.488281 1.371094 -14.695312 C 1.738281 -14.433594 2.105469 -14.277344 2.476562 -14.277344 Z M 2.6875 -20.753906 C 2.582031 -20.859375 2.527344 -20.914062 2.527344 -20.859375 C 2.476562 -21.019531 2.371094 -21.175781 2.210938 -21.28125 C 2.054688 -21.335938 1.949219 -21.492188 2 -21.648438 C 2.054688 -22.070312 2.316406 -22.335938 2.6875 -22.597656 C 3.054688 -22.96875 3.476562 -23.179688 3.84375 -23.230469 C 4.214844 -23.28125 4.320312 -23.179688 4.265625 -22.808594 C 4.109375 -22.019531 3.582031 -21.335938 2.6875 -20.753906 Z M 2.6875 -20.753906 "/></g></g></g><g fill="#575757" fill-opacity="1"><g transform="translate(185.759835, 657.064732)"><g><path d="M 2.6875 -5.898438 C 2.898438 -5.898438 3.054688 -5.953125 3.265625 -6.003906 C 4.160156 -6.320312 4.898438 -6.902344 5.371094 -7.796875 C 5.53125 -8.058594 5.476562 -8.269531 5.164062 -8.429688 C 5.109375 -8.480469 5.058594 -8.535156 5.003906 -8.535156 C 4.898438 -8.535156 4.792969 -8.429688 4.6875 -8.269531 C 4.320312 -7.796875 3.949219 -7.320312 3.371094 -6.953125 C 2.898438 -6.691406 2.527344 -6.585938 2.371094 -6.585938 C 2 -6.585938 1.738281 -6.953125 1.582031 -7.742188 C 1.421875 -8.953125 1.421875 -10.167969 1.632812 -11.273438 C 2.421875 -15.539062 4.847656 -19.175781 7.53125 -22.546875 L 8.164062 -23.335938 C 8.375 -23.597656 8.375 -23.914062 8.164062 -24.230469 C 8.113281 -24.390625 7.953125 -24.496094 7.742188 -24.496094 C 7.691406 -24.496094 7.53125 -24.441406 7.320312 -24.390625 C 7.269531 -24.390625 7.214844 -24.390625 7.214844 -24.390625 C 7.164062 -24.335938 7.113281 -24.335938 7.058594 -24.335938 C 5.371094 -23.546875 3.792969 -22.808594 2.160156 -21.808594 C 2.054688 -22.070312 2.054688 -22.230469 2.210938 -22.386719 C 2.316406 -22.597656 2.421875 -22.808594 2.582031 -23.019531 C 2.6875 -23.179688 2.792969 -23.386719 2.898438 -23.546875 C 3.371094 -24.335938 3.792969 -25.125 4.160156 -25.96875 C 4.265625 -26.445312 4.214844 -26.8125 4.054688 -27.179688 C 3.898438 -27.445312 3.632812 -27.601562 3.371094 -27.601562 C 3.214844 -27.601562 3.109375 -27.601562 3.003906 -27.550781 C 0.949219 -26.601562 -0.789062 -23.808594 -1.789062 -21.859375 C -1.84375 -21.753906 -1.949219 -21.542969 -2 -21.28125 C -2.160156 -20.703125 -2.105469 -20.28125 -1.789062 -19.910156 C -1.527344 -19.648438 -1.210938 -19.492188 -0.84375 -19.492188 C -0.261719 -19.492188 0.738281 -19.964844 1.160156 -20.226562 C 2.6875 -21.070312 4.214844 -21.859375 5.742188 -22.652344 C 5.792969 -22.703125 5.898438 -22.757812 6.003906 -22.808594 C 6.058594 -22.863281 6.164062 -22.863281 6.214844 -22.863281 C 6.214844 -22.863281 6.269531 -22.808594 6.425781 -22.757812 C 6.375 -22.597656 6.320312 -22.441406 6.214844 -22.28125 C 6.058594 -22.125 5.953125 -22.019531 5.847656 -21.859375 C 3.371094 -18.382812 1.371094 -15.277344 0.683594 -11.007812 C 0.527344 -9.746094 0.527344 -8.480469 0.894531 -7.214844 C 1.265625 -6.320312 1.84375 -5.898438 2.6875 -5.898438 Z M -1.054688 -20.332031 C -1.210938 -20.386719 -1.265625 -20.4375 -1.265625 -20.597656 C -0.84375 -22.335938 1.421875 -25.441406 3.003906 -26.445312 C 3.003906 -26.445312 3.054688 -26.445312 3.214844 -26.445312 C 3.265625 -26.390625 3.320312 -26.285156 3.320312 -26.234375 C 2.949219 -25.230469 2.476562 -24.390625 1.894531 -23.492188 C 1.738281 -23.125 1.527344 -22.808594 1.316406 -22.492188 C 1.054688 -22.175781 0.84375 -21.859375 0.683594 -21.492188 C 0.316406 -20.808594 -0.261719 -20.542969 -0.949219 -20.332031 Z M 2.105469 -21.808594 L 2.105469 -21.859375 L 2.160156 -21.808594 Z M 2.105469 -21.808594 "/></g></g></g><g fill="#575757" fill-opacity="1"><g transform="translate(194.187701, 657.064732)"><g><path d="M 4.742188 -9.691406 C 4.953125 -9.691406 5.109375 -9.746094 5.269531 -9.851562 C 6.902344 -11.0625 7.902344 -12.484375 8.164062 -14.433594 C 8.21875 -15.117188 8.480469 -15.644531 9.007812 -16.117188 C 10.429688 -17.542969 11.957031 -18.859375 13.589844 -20.070312 C 13.855469 -20.28125 14.066406 -20.4375 14.171875 -20.542969 C 14.378906 -20.753906 14.378906 -20.964844 14.222656 -21.230469 C 14.171875 -21.335938 14.117188 -21.386719 13.960938 -21.386719 C 13.90625 -21.386719 13.855469 -21.335938 13.695312 -21.28125 C 12.433594 -20.492188 10.167969 -18.4375 8.746094 -17.171875 C 8.585938 -17.015625 8.480469 -16.910156 8.429688 -16.804688 C 8.324219 -16.699219 8.164062 -16.59375 8.007812 -16.539062 L 7.847656 -16.644531 C 7.742188 -16.75 7.691406 -16.855469 7.636719 -16.910156 C 6.796875 -18.4375 5.476562 -19.070312 3.792969 -19.226562 L 1.84375 -19.4375 C 1.210938 -19.492188 0.894531 -19.597656 1.265625 -20.386719 C 2.054688 -22.386719 5.109375 -25.652344 7.058594 -26.65625 C 7.320312 -26.761719 7.375 -26.917969 7.269531 -27.128906 C 7.214844 -27.285156 7.058594 -27.390625 6.902344 -27.390625 L 6.742188 -27.390625 C 4.847656 -26.863281 2.054688 -23.546875 1 -21.964844 C 0.894531 -21.753906 0.789062 -21.542969 0.683594 -21.386719 C 0.578125 -21.175781 0.472656 -20.964844 0.421875 -20.753906 C 0.15625 -20.070312 0.316406 -19.492188 0.894531 -19.015625 C 1.265625 -18.753906 1.6875 -18.59375 2.054688 -18.542969 L 3.054688 -18.542969 C 3.476562 -18.488281 3.898438 -18.4375 4.320312 -18.382812 C 4.742188 -18.332031 5.164062 -18.226562 5.582031 -18.066406 C 6.109375 -17.910156 6.53125 -17.59375 6.902344 -17.171875 C 7.164062 -16.75 7.320312 -16.433594 7.320312 -16.171875 C 7.320312 -15.910156 7.164062 -15.539062 6.796875 -15.117188 L 6.425781 -14.644531 C 5.636719 -13.75 4.898438 -12.695312 4.320312 -11.589844 C 4.054688 -11.21875 3.949219 -10.902344 3.898438 -10.589844 C 3.84375 -10.273438 4.003906 -10.007812 4.265625 -9.851562 C 4.425781 -9.746094 4.582031 -9.691406 4.742188 -9.691406 Z M 5.476562 -11.324219 C 5.320312 -11.429688 5.320312 -11.535156 5.371094 -11.695312 L 6.53125 -13.273438 C 6.585938 -13.433594 6.691406 -13.484375 6.847656 -13.484375 C 6.902344 -13.484375 6.953125 -13.484375 7.007812 -13.433594 C 6.742188 -13.0625 6.53125 -12.695312 6.320312 -12.328125 C 6.109375 -11.957031 5.847656 -11.589844 5.476562 -11.324219 Z M 5.476562 -11.324219 "/></g></g></g><g fill="#575757" fill-opacity="1"><g transform="translate(207.303555, 657.064732)"><g><path d="M 0.105469 -13.378906 C 0.316406 -13.378906 0.527344 -13.484375 0.683594 -13.644531 C 1.84375 -14.539062 3.214844 -18.015625 3.632812 -19.4375 C 3.738281 -19.859375 3.949219 -20.070312 4.214844 -20.070312 C 4.320312 -20.070312 4.425781 -20.070312 4.53125 -20.015625 C 6.003906 -20.015625 7.320312 -20.121094 8.746094 -20.703125 C 9.007812 -20.753906 9.058594 -20.914062 8.953125 -21.175781 C 8.902344 -21.335938 8.746094 -21.4375 8.480469 -21.4375 C 8.21875 -21.386719 8.007812 -21.28125 7.847656 -21.230469 C 6.953125 -20.859375 5.953125 -20.753906 4.953125 -20.703125 L 4.636719 -20.703125 C 4.160156 -20.703125 4.109375 -20.808594 4.054688 -21.4375 C 4.003906 -21.859375 3.898438 -22.230469 3.6875 -22.492188 C 3.53125 -22.757812 3.371094 -22.863281 3.214844 -22.808594 C 2.898438 -22.757812 2.582031 -22.703125 2.265625 -22.652344 C 1.949219 -22.597656 1.6875 -22.441406 1.421875 -22.175781 C -0.0507812 -20.332031 -1 -18.226562 -1.265625 -15.910156 C -1.316406 -15.382812 -1.265625 -14.90625 -1.105469 -14.433594 C -1 -14.066406 -0.789062 -13.800781 -0.421875 -13.589844 C -0.210938 -13.433594 -0.0507812 -13.378906 0.105469 -13.378906 Z M -0.261719 -14.328125 C -0.632812 -14.75 -0.472656 -15.277344 -0.421875 -15.75 C -0.210938 -17.753906 0.527344 -19.597656 1.84375 -21.28125 C 1.894531 -21.335938 1.949219 -21.4375 2.105469 -21.492188 C 2.160156 -21.492188 2.265625 -21.4375 2.316406 -21.386719 C 3.109375 -20.597656 3.160156 -20.492188 2.792969 -19.4375 C 2.476562 -18.4375 0.789062 -14.328125 -0.261719 -14.328125 Z M 3.214844 -21.28125 C 2.949219 -21.28125 2.898438 -21.386719 2.949219 -21.648438 C 3.003906 -21.808594 3.109375 -21.914062 3.214844 -21.859375 C 3.265625 -21.859375 3.320312 -21.753906 3.320312 -21.597656 C 3.320312 -21.4375 3.265625 -21.335938 3.214844 -21.28125 Z M 3.214844 -21.28125 "/></g></g></g><g fill="#575757" fill-opacity="1"><g transform="translate(215.099321, 657.064732)"><g><path d="M 0.683594 -11.21875 C 0.949219 -11.21875 1.160156 -11.378906 1.210938 -11.695312 C 1.265625 -11.851562 1.371094 -12.117188 1.421875 -12.484375 C 1.738281 -13.855469 3.320312 -20.597656 4.320312 -21.28125 C 4.371094 -21.070312 4.425781 -20.859375 4.371094 -20.648438 C 4.320312 -20.4375 4.320312 -20.226562 4.320312 -20.070312 C 4.160156 -18.910156 4.214844 -17.699219 4.425781 -16.488281 C 4.582031 -15.699219 4.953125 -14.855469 5.847656 -14.855469 C 6.109375 -14.855469 6.320312 -14.90625 6.53125 -15.011719 C 8.429688 -16.222656 10.378906 -18.859375 11.640625 -20.703125 C 11.695312 -20.753906 11.746094 -20.859375 11.746094 -20.914062 C 11.800781 -21.070312 11.746094 -21.28125 11.589844 -21.4375 C 11.535156 -21.492188 11.484375 -21.492188 11.429688 -21.492188 C 11.324219 -21.492188 11.21875 -21.4375 11.113281 -21.335938 C 10.695312 -20.753906 10.273438 -20.226562 9.851562 -19.648438 C 9.164062 -18.699219 6.953125 -16.117188 5.898438 -15.59375 C 5.847656 -15.539062 5.792969 -15.539062 5.6875 -15.539062 C 5.53125 -15.539062 5.425781 -15.644531 5.371094 -15.855469 C 5.214844 -16.382812 5.109375 -16.855469 5.109375 -17.277344 C 4.953125 -19.175781 5.214844 -20.964844 5.476562 -22.808594 L 5.636719 -24.285156 C 5.636719 -24.601562 5.53125 -24.8125 5.371094 -24.96875 C 5.320312 -25.019531 5.269531 -25.074219 5.109375 -25.074219 C 4.953125 -25.074219 4.898438 -25.019531 4.847656 -24.96875 C 3.476562 -22.914062 1.84375 -17.910156 1.210938 -15.539062 L 0.894531 -14.484375 L 0.789062 -14.484375 C 0.683594 -14.589844 0.632812 -14.644531 0.632812 -14.644531 L 0.632812 -15.539062 C 0.894531 -18.699219 1.527344 -21.648438 2.792969 -24.601562 L 2.949219 -24.96875 C 2.949219 -25.179688 2.84375 -25.335938 2.632812 -25.441406 C 2.582031 -25.441406 2.582031 -25.441406 2.527344 -25.496094 C 2.476562 -25.496094 2.371094 -25.441406 2.210938 -25.285156 L 1.738281 -24.285156 C 1.105469 -22.757812 0.683594 -21.175781 0.316406 -19.542969 C -0.15625 -17.332031 -0.367188 -15.117188 -0.261719 -12.90625 C -0.261719 -12.484375 -0.261719 -12.117188 -0.0507812 -11.695312 C 0.0507812 -11.378906 0.316406 -11.21875 0.683594 -11.21875 Z M 0.683594 -11.21875 "/></g></g></g><g fill="#575757" fill-opacity="1"><g transform="translate(157.617256, 77.373211)"><g><path d="M 2.726562 0 L 5.457031 0 L 5.457031 -16.164062 L 10.832031 -1.695312 L 13.683594 -1.695312 L 19.058594 -16.164062 L 19.058594 0 L 21.785156 0 L 21.785156 -19.472656 L 17.679688 -19.472656 L 12.238281 -4.671875 L 6.835938 -19.472656 L 2.726562 -19.472656 Z M 2.726562 0 "/></g></g></g><g fill="#575757" fill-opacity="1"><g transform="translate(187.776998, 77.373211)"><g><path d="M 0.539062 0 L 3.597656 0 L 5.097656 -4.230469 L 13.1875 -4.230469 L 14.675781 0 L 17.695312 0 L 10.199219 -19.472656 L 8.074219 -19.472656 Z M 6.035156 -6.695312 L 9.148438 -15.351562 L 12.238281 -6.695312 Z M 6.035156 -6.695312 "/></g></g></g><g fill="#575757" fill-opacity="1"><g transform="translate(211.652887, 77.373211)"><g><path d="M 6.917969 0 L 9.730469 0 L 9.730469 -17.046875 L 16.082031 -17.046875 L 16.082031 -19.472656 L 0.566406 -19.472656 L 0.566406 -17.046875 L 6.917969 -17.046875 Z M 6.917969 0 "/></g></g></g><g fill="#575757" fill-opacity="1"><g transform="translate(233.944031, 77.373211)"><g><path d="M 6.917969 0 L 9.730469 0 L 9.730469 -17.046875 L 16.082031 -17.046875 L 16.082031 -19.472656 L 0.566406 -19.472656 L 0.566406 -17.046875 L 6.917969 -17.046875 Z M 6.917969 0 "/></g></g></g><g fill="#575757" fill-opacity="1"><g transform="translate(256.235176, 77.373211)"><g/></g></g><g fill="#575757" fill-opacity="1"><g transform="translate(269.017858, 77.373211)"><g><path d="M 2.726562 0.0273438 L 5.527344 0.0273438 L 5.527344 -8.53125 L 8.324219 -8.53125 L 13.160156 0.0273438 L 16.398438 0.0273438 L 11.050781 -8.847656 C 13.410156 -9.480469 15.046875 -11.355469 15.046875 -13.90625 C 15.046875 -17.390625 12.167969 -19.457031 8.640625 -19.457031 L 2.726562 -19.457031 Z M 5.554688 -10.941406 L 5.554688 -16.964844 L 8.667969 -16.964844 C 10.832031 -16.964844 12.277344 -15.804688 12.277344 -13.875 C 12.277344 -12.070312 10.957031 -11.039062 8.972656 -10.941406 Z M 5.554688 -10.941406 "/></g></g></g><g fill="#575757" fill-opacity="1"><g transform="translate(291.777536, 77.373211)"><g><path d="M 10.472656 0.277344 C 16.648438 0.277344 19.527344 -4.382812 19.527344 -9.742188 C 19.527344 -15.089844 16.648438 -19.761719 10.472656 -19.761719 C 4.3125 -19.761719 1.433594 -15.089844 1.433594 -9.742188 C 1.433594 -4.382812 4.3125 0.277344 10.472656 0.277344 Z M 10.472656 -2.246094 C 6.023438 -2.246094 4.300781 -5.800781 4.300781 -9.742188 C 4.300781 -13.671875 6.023438 -17.226562 10.472656 -17.226562 C 14.9375 -17.226562 16.675781 -13.671875 16.675781 -9.742188 C 16.675781 -5.800781 14.9375 -2.246094 10.472656 -2.246094 Z M 10.472656 -2.246094 "/></g></g></g><g fill="#575757" fill-opacity="1"><g transform="translate(318.38194, 77.373211)"><g><path d="M 2.726562 0 L 9.6875 0 C 12.871094 0 15.945312 -1.652344 15.945312 -5.402344 C 15.945312 -7.757812 14.539062 -9.550781 12.636719 -10.347656 C 13.917969 -11.078125 14.992188 -12.457031 14.992188 -14.457031 C 14.992188 -18.148438 11.796875 -19.472656 8.75 -19.472656 L 2.726562 -19.472656 Z M 5.511719 -11.246094 L 5.511719 -16.949219 L 8.792969 -16.949219 C 10.707031 -16.949219 12.277344 -16.261719 12.277344 -14.207031 C 12.277344 -12.015625 10.707031 -11.246094 8.914062 -11.246094 Z M 5.511719 -2.632812 L 5.511719 -8.792969 L 9.703125 -8.792969 C 11.644531 -8.792969 13.1875 -7.800781 13.1875 -5.648438 C 13.1875 -3.417969 11.6875 -2.632812 9.742188 -2.632812 Z M 5.511719 -2.632812 "/></g></g></g><g fill="#575757" fill-opacity="1"><g transform="translate(341.348323, 77.373211)"><g><path d="M 2.726562 0 L 15.503906 0 L 15.503906 -2.605469 L 5.527344 -2.605469 L 5.527344 -8.503906 L 14.46875 -8.503906 L 14.46875 -10.984375 L 5.527344 -10.984375 L 5.527344 -16.964844 L 15.503906 -16.964844 L 15.503906 -19.472656 L 2.726562 -19.472656 Z M 2.726562 0 "/></g></g></g><g fill="#575757" fill-opacity="1"><g transform="translate(364.108001, 77.373211)"><g><path d="M 2.726562 0.0273438 L 5.527344 0.0273438 L 5.527344 -8.53125 L 8.324219 -8.53125 L 13.160156 0.0273438 L 16.398438 0.0273438 L 11.050781 -8.847656 C 13.410156 -9.480469 15.046875 -11.355469 15.046875 -13.90625 C 15.046875 -17.390625 12.167969 -19.457031 8.640625 -19.457031 L 2.726562 -19.457031 Z M 5.554688 -10.941406 L 5.554688 -16.964844 L 8.667969 -16.964844 C 10.832031 -16.964844 12.277344 -15.804688 12.277344 -13.875 C 12.277344 -12.070312 10.957031 -11.039062 8.972656 -10.941406 Z M 5.554688 -10.941406 "/></g></g></g><g fill="#575757" fill-opacity="1"><g transform="translate(386.867679, 77.373211)"><g><path d="M 7.964844 0.21875 C 11.546875 0.21875 14.359375 -1.984375 14.359375 -5.511719 C 14.359375 -11.878906 4.960938 -10.761719 4.960938 -14.800781 C 4.960938 -16.328125 6.269531 -17.292969 7.773438 -17.292969 C 9.207031 -17.292969 10.515625 -16.5625 11.257812 -15.128906 L 13.492188 -16.550781 C 12.222656 -18.753906 10.183594 -19.761719 7.839844 -19.761719 C 4.769531 -19.761719 2.191406 -17.816406 2.191406 -14.621094 C 2.191406 -8.503906 11.601562 -9.839844 11.601562 -5.277344 C 11.601562 -3.375 10.210938 -2.273438 7.992188 -2.273438 C 5.800781 -2.273438 3.871094 -3.417969 3.609375 -5.953125 L 0.894531 -5.222656 C 1.488281 -1.585938 4.65625 0.21875 7.964844 0.21875 Z M 7.964844 0.21875 "/></g></g></g><g fill="#575757" fill-opacity="1"><g transform="translate(407.987491, 77.373211)"><g><path d="M 10.472656 0.277344 C 16.648438 0.277344 19.527344 -4.382812 19.527344 -9.742188 C 19.527344 -15.089844 16.648438 -19.761719 10.472656 -19.761719 C 4.3125 -19.761719 1.433594 -15.089844 1.433594 -9.742188 C 1.433594 -4.382812 4.3125 0.277344 10.472656 0.277344 Z M 10.472656 -2.246094 C 6.023438 -2.246094 4.300781 -5.800781 4.300781 -9.742188 C 4.300781 -13.671875 6.023438 -17.226562 10.472656 -17.226562 C 14.9375 -17.226562 16.675781 -13.671875 16.675781 -9.742188 C 16.675781 -5.800781 14.9375 -2.246094 10.472656 -2.246094 Z M 10.472656 -2.246094 "/></g></g></g><g fill="#575757" fill-opacity="1"><g transform="translate(434.591895, 77.373211)"><g><path d="M 2.726562 0 L 5.457031 0 L 5.457031 -15.53125 L 13.699219 0 L 17.046875 0 L 17.046875 -19.472656 L 14.316406 -19.472656 L 14.316406 -3.96875 L 6.035156 -19.472656 L 2.726562 -19.472656 Z M 2.726562 0 "/></g></g></g></svg>